<svg id="Ebene_1" data-name="Ebene 1" xmlns="http://www.w3.org/2000/svg" viewBox="0 0 494.28 492.71"><defs><style>.cls-1{fill:#fff8ff;}.cls-2{fill:#fff;}.cls-3{fill:#001400;}.cls-4{fill:none;}</style></defs><title>04_VIRUS</title><path class="cls-1" d="M268.18,132l-.93,6.78a81.43,81.43,0,0,1,8.74-3.4c1.23-.32,2.77.52,4.17.84-.64,1.48-.9,3.38-2,4.34-1.42,1.24-3.67,1.48-5.23,2.61-3.14,2.28-6.06,4.88-9.06,7.36l.73,2c2.13.47,4.29.8,6.37,1.43a53.37,53.37,0,0,1,5,2.11l-3.31,4.5c2.66,4.41,2.3,5.48-3.26,6.27-3.26.46-6.58.43-10.9.67.51,2.92,1.1,5.68,1.44,8.46a43.91,43.91,0,0,1,0,5.26c-1.51-.92-3.05-1.79-4.52-2.78a1.69,1.69,0,0,1-.62-.84l-10.7,6.92c.2,11.65-7.82,18.26-19.56,15.76-1.89-.4-4.08.63-6.22,1-3.33-4.34-9.72-6.77-13.44-3.77-3.89,3.13-6.61,7.72-10.31,12.24-.76-1.73-1.75-4-2.87-6.51l-6.92,2.23c1.46,2.86,2.82,5.5,5,9.79-3.23-.68-5.29-.61-6.74-1.52-4-2.54-7.71-2-8.67,2.6-1.29,6.14-3.45,5-6.6,1.67-6,5.89-9.63,4.91-12.18-3-.56-1.72-2.08-3.13-3.16-4.68a33.69,33.69,0,0,0-1.91,5.72c-.55,3.55,2,7.78-3.1,11.4-1-3.68-1.85-6.7-2.69-9.74-3.08,1.43-6.17,4-9.22,4s-5.92-2.79-9.4-4.62l-2.35,3.46c-.79-.45-1.72-.76-1.7-1,.74-9.79-7.94-11.43-13.57-15.58-1.15-.85-3.37-.24-5.1-.3a41.94,41.94,0,0,0,1.68,5.59,47.17,47.17,0,0,0,3.09,5.18c-2.46-.25-5.14,0-7.34-.88-2.5-1-3.22-5.85-7.42-3.45-.55-1.48-1.6-3-1.55-4.45.06-2.06.94-4.1,1.46-6.1l-9.35-4.5-4.16,12.27L77.31,207c.29-4.55-.54-9.56,1.11-13.54,2.81-6.79,8-7,14-.34-1.32-4-2.21-6.72-3.22-9.76-4.85,2-9.46,4.51-14.37,5.79-2.4.62-5.37-1-9.25-1.85-1.12.68-3.43,2.8-6.09,3.42-1.64.38-5.07-1.12-5.5-2.47-1.07-3.43,1.64-3.59,4.3-3.25.65.08,1.39-.53,2-.8-.93-8.62-3.54-9.1-15.28-3.22-2-2.22-4.18-4.19-5.73-6.58-.58-.89-.11-3.65.63-4,5.73-2.83,5.79-2.71,8.18-9.38-2.88.44-5.5,1-8.16,1.21-4.89.35-5.76-1.77-6-6.65-.26-6.6,1.86-7.18,7.63-5.87,2.84.65,6.34-1.67,9.55-2.65l.13-2.12c-3.87-1.41-7.65-3.23-11.63-4.14-7.18-1.64-8.47-3.5-6.28-10.42a19.39,19.39,0,0,0,.3-3.44c.39-3.23,1.44-5,4.87-2.49,1.8,1.32,10.18-1.33,11.26-3.75,1.62-3.61.38-6.24-3.13-8.3s-6.68-4.78-10.54-7.61l6.95-6.5.56,1.65c4.78-1.57,9.78-2.67,14.25-4.87,3.19-1.56,3-4.78.54-7.47-.94-1-2.48-1.78-2.82-2.94-.6-2-.47-4.2-.64-6.32,1.7.52,3.8.56,5.06,1.62,7.63,6.37,8.22,11.16,2.91,20.38,3.86,1.07,3.8,1,6.6-3.55C71.14,94.28,73,92,74.83,89.29c-4.6-1.93-5.92-5.68-4-10.38,1.29-3.17.22-4.9-2.25-6.93-2.29-1.87-5.74-4-2.76-8.43,5.62,3,10.71,8.17,18.25,3.12-1.59-1.91-3.42-3.58-4.56-5.65-.92-1.66-1-3.79-1.48-5.72,1.85.48,3.72.86,5.52,1.47a18.35,18.35,0,0,1,3.17,2.09c-.48-5.82-2.87-11.52,4.22-14.41,5.69-2.32,10.25-1.08,14.59,3.21,1-3.76,1.79-7,2.62-10.23l1.72-.1c1.17,3.06,2.33,6.13,3.66,9.6,5.49-2.54,12.66-2.11,12.58-10.79,0-.57,3.59-2.12,4.71-1.56,2.38,1.18,4.24,3.45,6.32,5.27s6.09.39,7.57-2.74a53.78,53.78,0,0,1,3.08-5.06l4,5.05c0,.66,0,1.31,0,2,4-1.17,7.89-2.56,11.92-3.45,2.47-.55,5.11-.32,9.07-.5L169,42.39l10.24,3.12a49.91,49.91,0,0,1,1.89-7.09c.75-1.76,2.24-3.2,3.4-4.79,1,1.84,2,3.64,2.89,5.52.3.66.2,1.51.47,3.83l8.42-7a22.13,22.13,0,0,1,3.11,2.55c4.72,5.18,9.21,4.77,12.47-1.26.38-.69.5-1.71,1.06-2.07a39.11,39.11,0,0,1,4.37-2.11c.52,1.72,2,4.05,1.4,5.06-2.28,3.69-5.26,7-8.77,11.37.1.48.53,2.56,1.09,5.24,4-2.46,9.18-3.2,7.42-9.86-.28-1,1.34-2.58,2.08-3.9A26.07,26.07,0,0,0,224,43c3.3,1.32,6.94,4,9.92,3.37,3.79-.75,6.88.18,10.36.47,5.91.5,11.8,4,13.73,10.37,1.66,5.49-2,8.82-5.82,11.82l-.71.55c5.71,1.13,12.1,1.84,18.06,3.83,2.27.76,4.09,4.24,5.17,6.87,1.7,4.11,1.69,8.27-2.71,10.12,1.77,6.79,4.1,13.1,4.8,19.58.31,2.94-2.84,6.14-3.95,9.39a12.36,12.36,0,0,0-.45,6.18c.42,2.11,1.78,4,2.73,6Zm-20.75,4.54c4.54-6.23,7.54-14,16.83-15.52l-.95-1.94-16.63,2.6,5,3-2.61,1q-.75,5.52-1.52,11L229.76,148c1.27,1.28,1.27,1.28,17.23-4.61C247.13,141.17,247.28,138.85,247.43,136.54Zm-103.31-8,.41,1.85c2.56-.64,5.3-.9,7.65-2,6.25-2.91,10.35-1.33,12.21,5.12.31,1.09.67,2.17.91,3,4.43,0,8.52-.36,12.53.08,8.65,1,8.74,1.09,9.11-2.86-2.9.28-5.82,1-8.65.68-1.57-.14-3-1.86-4.47-2.86,1.22-1,2.27-2.57,3.68-3,3.15-1.05,6.47-1.56,9.71-2.34a5.25,5.25,0,0,0,3.46-7.7c-2.14-3.81-10.34-4.75-15.66-2.51-5.65,2.38-6.83,5.17-2.59,9.94.64.72.33,2.52,0,3.69-.1.36-2.29.7-2.53.36-2-2.93-5-5.9-5.35-9.11-.26-2.35,2.39-6.06,4.74-7.44,3.92-2.3,8.63-3.22,14.52-5.23-2-1.43-3.3-2.81-4.85-3.28s-3.52,0-5.27-.18c-4.25-.4-6.9.5-7.6,5.63-.82,6-6.43,9.4-11.12,9.37-6.68,0-14.27-.16-20-6.77.22,2.71.37,4.6.51,6.37C146.44,121.46,148,123.25,144.12,128.49Zm13.61,66.63c-10.68-4-11.38-9.08-3.45-20.12l-7.67-10.62-18.29-2.5c.46,1.84.82,3.28,1,3.91,5,.74,9.42,1.35,13.8,2.07,4.14.67,4.53,3,2.79,6.39-.95,1.85-2,3.94-2,5.92,0,4.33.74,8.66,1.23,13.5,8-1.92,9.33,4.35,10.56,11.76C156.5,201.18,157.07,198.36,157.73,195.12Zm-84-58.42c-5.34-4-6.82-8.76-4.77-14.61.31-.89-1.08-3.08-2.17-3.56a4.74,4.74,0,0,0-4.23.7c-2.3,2.11-4.79,4.43-6,7.2a10.69,10.69,0,0,0,.07,7.83c1.5,3.25,4.27,5.52,8.64,3.8C67.52,137.19,70.11,137.24,73.73,136.7ZM194.44,95c1.76,6.36.37,10.37-6.62,11.51,1.94,1.44,3.66,2.37,5.4,2.41a79.69,79.69,0,0,0,9.37-.62c3.12-.29,7.12.89,7-4.67-.14-4.8-1-8.66-6.94-8.63ZM62.25,106.48l-.27,2c1.29.6,2.54,1.61,3.87,1.73,5,.47,10,.87,15,.84,2,0,4.64-.7,5.61-2.07s.79-4.47-.22-5.78c-2.4-3.12-5.6-5.62-8.33-8.23C71.79,99,72.54,109.65,62.25,106.48Zm71.05,1.22c4.31-4.57,6.2-13.71,3.19-16.33-7.83-6.8-11,3.48-18.29,4.69Zm71.46,18.43c-2.06,5.35-5.49,8.24-11.37,6.54,1.37,5.37,7.78,9.05,13.07,8.45,5.73-.65,7.28-4.62,7.88-9.34.66-5.18-4-2.84-6.13-4.08C207.25,127.14,206.18,126.77,204.76,126.13ZM111.54,89.36c2.86-1.36,5.67-2.1,7.64-3.82,1.53-1.34,3.21-4.33,2.68-5.81-1-2.89-1.66-6.75-6.7-6.64-6.78.14-7.24,5.85-10.49,9.92C107,85.2,109.17,87.18,111.54,89.36Zm53.21-37.87c-4.59-7.2-8.07-8.87-15.34-7.47-2.47.48-4.72,1.77-2.33,4.16,4.09,4.11,8.1,7.86,3.63,15l1.9-.32ZM222.42,98.9c2.56-1,5.67-1.26,7.48-3,2.59-2.45,5.2-5.66,6-9,.89-3.68-3.6-6.72-8.08-5.77-3.66.77-7.12,2-5.56,7.47C223.12,91.66,222.42,95.12,222.42,98.9Zm-50.09,53.17c4.72-.21,8,.09,10.93-.66,1.54-.39,3.55-2.58,3.65-4.08s-1.71-4.72-2.8-4.78a92.92,92.92,0,0,0-16.07.78c-.81.11-2.21,4.11-1.69,4.62A32.71,32.71,0,0,0,172.33,152.07Zm53.81-98.52C213.92,57.09,213,61.47,213.7,67.4c.19,1.53,2.36,3.85,3.79,4,2.75.27,6.84,1.4,7.53-3.2S225.75,59,226.14,53.55Zm13.42,50.72c-5.29,2.83-11.18,5.74-16.74,9.18-.88.55-.68,5-.32,5.08a82.76,82.76,0,0,0,13,2.32c.74.08,2.23-1.87,2.43-3C238.66,113.32,239,108.78,239.56,104.27ZM192.88,73.46l-11.26,9.71c4.82,1.17,8.78,2.29,12.82,3,1.8.34,4,.52,5.55-.25,1.7-.87,2.8-2.9,4.16-4.42-1.5-1.27-2.93-2.64-4.52-3.77C197.58,76.33,195.4,75.06,192.88,73.46ZM87.39,155.1c4.58-2.12,10.33-2.65,9.93-9.26a5.74,5.74,0,0,0-3.18-4.06c-5.22-1.85-10.13-1.15-14.09,3.09C82.56,148.37,84.83,151.52,87.39,155.1Zm11-85.88a77.11,77.11,0,0,0,6.33-5c.81-.81,1.83-2.65,1.48-3.17A66.31,66.31,0,0,0,98.5,51c-.9-.91-3.65-.47-5.3.1-.59.2-.93,2.8-.5,4C94.37,59.72,96.39,64.25,98.44,69.22Zm56.3,23.24-1.05,2.05c1.46,1.29,2.92,3.69,4.37,3.68,7.22-.06,14.44-.76,21.67-1.23l.85-1.78-11.39-8.77C164.61,89.68,163.21,99,154.74,92.46Zm48.43-24.61c3.16,7.46,13.49,13.06,4.83,22l8.86,8.24V79.32c-1.5-1.09-4.52-2.35-6-4.62-1.75-2.6-2.18-6.1-3.31-9.63Zm-31.85,95.72c4.1-1.19,8.34-3.57,12.4-3.29s8.06,3.21,12.18,5c2.6-4.61,2.58-9-3.44-11.77-8.59,7.78-18.23,3.85-27.53,2.49Zm31.53,20.29,1.07,1.58c1.7,0,3.85-.67,5,.11,4.85,3.23,8.68-.09,12.49-1.87,1.58-.73,2.19-3.56,3.24-5.44-2.23-.74-4.53-2.25-6.66-2-2.78.29-5.53,1.74-8.1,3.07A80.31,80.31,0,0,0,202.85,183.86Zm-7.93-6.52,1.06-2.12c-3.63-3.12-6.91-6.92-11-9.06-1.81-.94-5.36,1.51-8.12,2.42,1.67,2.62,2.81,6.66,5.14,7.53C185.88,177.58,190.56,177,194.92,177.34ZM75.78,158.51l0-1.66c-4.17-1.78-5.56-9.57-12-5.88C59,153.71,58,160.45,60.3,162.89a75.29,75.29,0,0,0,8.3-1.42A63.46,63.46,0,0,0,75.78,158.51ZM71.53,179.8c.64.46,2,2.25,3.5,2.34,2.41.16,5.5-.06,7.19-1.46,2.19-1.84,3.52-4.89,4.7-7.64.25-.59-1.54-2.58-2.76-3.19C79.22,167.38,71.43,172.6,71.53,179.8ZM132,194.19c-4.1-6.15-9.06-8.82-17.42-8.28,1.36,3.48,1.69,7.87,3.85,9.15C122.58,197.51,128,201.6,132,194.19Zm-1.38-77.71-11.24-3.61c-5,9.33-4.11,13.2,3.64,16.25C125.4,125.18,127.78,121.24,130.64,116.48Zm-.87,87.5c.92,4.14,1,6.7,2.11,8.78.7,1.37,2.88,3,4.19,2.85,3.79-.48,11.78-11.9,11.68-16.81C141.94,200.92,138.57,209.16,129.77,204ZM134.3,81.2c5.79,1,11.19,2,16.63,2.73a6.69,6.69,0,0,0,4.37-1c1.1-.78,2.26-2.56,2.12-3.73a4.47,4.47,0,0,0-3-2.91C147.1,75.14,139.8,74.44,134.3,81.2Zm118,22.63c4.29,0,7,.06,9.67,0,2.21-.06,4.41-.27,6.62-.41-1.06-2.7-1.56-5.88-3.35-7.94-1.44-1.67-4.43-2-7.7-3.29Q255.08,97.77,252.35,103.83ZM124.06,52.44l-5.28,6.9c1.77,1.34,3.39,3,5.34,3.93,3,1.44,6.1,2.95,9.29,3.37,2,.27,4.27-1.41,6.41-2.22-1.9-1.57-4-4.67-5.66-4.45C128.92,60.68,125.85,59,124.06,52.44Zm36.28,54.31c-12.15-3.62-14.36-3-16.79,4.59.28.3.5.76.81.83,2.45.58,4.91,1.09,7.38,1.59C158.9,115.21,159.25,114.94,160.34,106.75ZM140.56,146c-7,2.71-11.35,7.83-8.81,9.54,3.2,2.16,9.36,4.58,11.29,3.07C149.22,153.82,141.48,150.41,140.56,146Zm63.13-93.29c-2.76-1.63-5.5-2.42-6.92-4.25-3.71-4.75-6.49-1.92-8.83.91-1.43,1.73-1.76,4.38-2.88,7.46,6.95-2.42,12.74-4,16.87,4.94C202.75,57.59,203.22,55.18,203.69,52.74Zm-34.6,144.57c6.16-12.25,17.13-12.28,28.68-10.85l.1-1.69-22.35-2.38c.34,6.91-8.31,6.3-12.41,10.13Zm-23-139c.94-4.14-4.12-9-14.92-13.55-5,3.45-1.35,6.59.75,8.66Zm28.51-.15c-6.69.1-4.33,11.62-14.17,7.11,3,4.09,4.32,6.77,6.39,8.62,2.81,2.5,7.48.37,7.72-3.41C174.81,66.48,174.61,62.44,174.61,58.17Zm39.94,66.14,1-1.26c-.26-3.67-.53-7.33-.69-9.71l-18.62,2.87c.33,3.59.65,7.16,1,10.72,2.66-2.31,3.87-5.1,5.56-7.55a6.47,6.47,0,0,1,4-2.69c.92-.09,2,1.91,3.07,3C211.42,121.21,213,122.76,214.55,124.31ZM89.92,90.2c.88-1.94,2.52-4.33,3-6.92.52-2.93-.49-5.46-4.51-4.93s-7.89.74-12.63,1.17c.54,1.26.74,3.18,1.75,3.82C81.17,85.68,85.11,87.59,89.92,90.2Zm11.61,41.18-.42-6.12-13.56-4.41L82.4,125.5C87.32,132.65,95.05,127.11,101.53,131.38Zm158.31,15.41c-1,.39-1.88.69-2.72,1.06-1,.44-2,.94-2.86,1.38,2.3,9.25,2.16,9.55-7.07,15.59l6.59,2.35a7.69,7.69,0,0,0,1.14-1.7c1.42-4.62,2.84-8.73,8.73-4,1,.82,3.44-.13,6.52-.36C258.56,155,258.56,155,259.84,146.79Zm-33.52-4.85c4.7-5.25,13.45-2.75,16.27-11.37-4,.34-7.07,1-10.1.77C225,130.79,223.51,132.72,226.32,141.94ZM97.77,98.54l6.08,13.68c3.78-2,7.78-2.13,6.18-7.26C108,98.54,105.7,96.9,97.77,98.54ZM240,65.9c4.7-1,10.57.4,11.5-5.9.26-1.82-3.41-5.71-5.71-6.11C241.62,53.17,238.69,59.34,240,65.9Zm-30.33,107,8.13-11.48-1.19-1.84L201.49,163c-.08.69-.17,1.38-.25,2.07Zm-71.19-47.19c-5.22.22-11.16,6.33-13.06,13C134.51,140.22,137.89,137,138.43,125.73Zm84.67,27.82.2,2c7,.75,14.06,1.69,21.11,2.08,1.52.09,3.59-1.52,4.56-2.93.52-.76-.49-3.74-1.33-4a8,8,0,0,0-5.73.35c-5.23,3-10.2,6.13-16.11,1.47C225.4,152.24,224,153.19,223.1,153.55Zm-119.52,17c2.59-4.87,5-9,6.92-13.31.42-1-.61-3.61-1.43-3.85-1.44-.42-4.49.1-4.69.82C103.05,159.09,97.68,163.59,103.58,170.57Zm73.48,31.88c5.1-6.26,15.06-1.13,15.88-10.88-6.86-2.52-11.94,1-16.76,4.64C175.59,196.66,176.54,199.14,177.06,202.45ZM147.14,136l8.56,10.12,2.75-.95q.06-6.33.14-12.66Zm122.47-25.32c-4.18,0-8.75-1.15-12.27.28-4.72,1.92-8.12,2.21-11.6-3.46l-2.56,8.71L268.86,114a6.06,6.06,0,0,0,.72-1.44A6,6,0,0,0,269.61,110.69Zm-98.85,71.15c-8.16-5-11.59-5-15.15,0-1.06,1.47-.16,4.35-.16,7.93ZM234.89,53.36c-2.6.23-2.45.25-3.62,9.15-.54,4.1-1.78,8.11-2.7,12.13,3.44,1,7.17,2.11,10.9,3.18.1,0,.27-.21.6-.46l1.06-4.29C232.24,72.12,232.24,72.12,234.89,53.36Zm-32,104.27,10.78-8.22-1-1.36-15.37-.92C194.74,151.43,202,152.67,202.92,157.63ZM123,164.71,111.72,178.9,123,180.31Zm42.34,0c-2.47-3.92-4.7-7.71-9.21-3.81-1.42,1.24-2.48,5.62-1.89,6C158.14,169.79,161.81,168.39,165.32,164.71Zm84.83,7h-20c4.51,5.86,9.62,6.35,14.84,5C246.75,176.34,248,173.88,250.15,171.74ZM106.69,118.79c4.32,6.52,2.06,17.08,12,20.41l1.91-6.11C110.7,133.26,112.27,122.65,106.69,118.79Zm31.89,67.15V172c-1.11-.19-2.93-1-4.38-.61a6.17,6.17,0,0,0-3.51,3.31c-.43,1.06.19,3,1,4C134,181.48,136.68,184,138.58,185.94Zm53.68-124L181.47,68v8.76C185.86,71.13,192.29,69.23,192.26,61.89Zm-29.69,91.34a43,43,0,0,0-4.76-2.28c-2.29-.72-5-.72-6.87-1.95-2.12-1.38-3.57-3.8-5.31-5.76l-.66.39c2.23,4.44,4.46,8.87,6.71,13.36ZM239.16,191c-10.55-5.15-11.82-4.4-10.79,5.29ZM96,176.17c2-5.72-2.41-10.58-1.84-16.88l-7.08,3.12Zm156.58-34.69,1.85,1.15c6.48-2.1,8.45-5.71,6-14.29C257.3,133.6,254.94,137.54,252.59,141.48ZM52,169.76l13.8,4c.35-.94,1-2.7,1.67-4.42l-14.38-2.42ZM96.51,181c-2.53,4.22-.63,6.33,2.28,8.14,3.51,2.17,5.14,0,7.08-2.62Zm53.16-82.25c-4.59-2.27,1.24-11.58-7-10.28.43,3.83.86,7.6,1.33,11.8Zm12.09,100c-.84,6.05.23,10,5.43,12.62C169.16,205.72,166.93,202.31,161.76,198.79Zm73-34.33-11.38-1.91c-.9,1.84-1.91,3.88-2.92,5.92l.87,1.62Zm-147.61-29-13.41-8.8c2.32,4,4.22,7.21,6.28,10.71Zm34.51,22.39,1.63-.12c1.6-10.2,1.6-10.2-3.62-11.71C120.33,150.11,121,154,121.63,157.85Zm-20.27-39.72.75-1.83L95.34,110l-1.73.55c.26,2.12-.22,5.12,1,6.13C96.15,118,99,117.7,101.36,118.13ZM258.63,75.62,247.1,76.74C249,81.46,249,81.46,258.63,75.62ZM50.74,106l7.54,8.73C54.84,103.62,57.05,103.44,50.74,106Z" transform="translate(-8.33 -8.46)"/><path class="cls-1" d="M395.84,426.15l5.78-6.31c-6.73,1.39-6.46-3.78-7.27-6-4.2.53-8.1,2.11-11.26,1.17-5.31-1.58-9.6-4.66-8.46-12s-5.3-10.37-10.71-15.29c-1.09,4-1.93,7-2.76,10.06l-1.34.71c-.84-1.71-2.29-3.39-2.4-5.15-.33-5.38,2.5-8.86,8.23-10.22-4.12-5-7.82-9.51-11.72-14.26-3,2.32-3.82,4.12-.33,7.61,2.26,2.26,4.28,7.07,3.33,9.59s-5.59,4.29-8.87,4.84c-2.64.45-7.16,2.8-8.17-2.16-.15-.74,5-2.69,7.84-3.89a24,24,0,0,1,4.58-.85c-2.18-3.6-5.26-6.57-5.61-9.84-.36-3.45,1.9-7.16,3.52-12.39-7.17,3.55-14.64,3-15.52,12.06-.25,2.57-3,4.89-4.64,7.33l-1.61-.74v-5.53L322,379l-1.27-1.34c1-1.5,2-3,3-4.5,3.38-5,3.46-10.22-.46-14.62-1.14-1.27-4.19-2.2-5.59-1.57-2.88,1.3-7.61-.82-8.59,4.31-.8,4.2-1.36,9.1-7,3.31-.47-.47-2.31.61-3.52.66-2.78.12-5.57,0-8.35,0-.05-.67-.09-1.33-.14-2,2.67-1.76,7.14-3.14,7.6-5.36.82-3.92-.8-8.36-1.4-12.54-7.94,1.05-15.43,1.3-20.24,8.54-.7,1.06-4.09.33-6.24.42.59-1.66.79-3.64,1.84-4.94,5.88-7.31,5.37-7.87-2.56-12.16-4.78-2.59-8.85-6.08-14.73-5.74-.81,0-1.72-1.69-2.88-2.93,8.18-4.21,14.67-3.22,19.74,5.16l1.44-2.07c-2-3.47-3.35-7.8-6.26-10.17-3.32-2.69-7.2-.49-10.56,2.09-2.2,1.68-5.14,2.4-8.69,4,1.86-7.32,12.44-14.23,20.3-13-1.49-3.61-2-6.84-3.84-8.83-3.93-4.29-11.7-4.34-17.28-1.32-1.77,1-4.18.74-6.29,1.06.85-1.76,1.31-4,2.65-5.21a45.7,45.7,0,0,1,8.62-6.34c5.11-2.89,5.83-7.68,1.82-11.73-1.38-1.39-1.73-3.79-2.55-5.73l1.62-.85,6.71,3.79c1.14-8.92,4-15.93,13-18.39a2.84,2.84,0,0,0,1.42-.92c3.46-4.69,3.45-4.7,7.73-.24,2.42-5.6,6.35-7.41,12-4.93.74.32,3-2,4-3.48.65-1,.12-2.7.33-4.06.44-2.67,1-5.32,1.54-8,3.11,2.08,8.07.39,9.94,5.35.59,1.54,3.09,2.45,4.84,3.41,2,1.11,4.17,1.95,6.38,3,5-3.7,5.45-6.66,1.65-11.42-1.23-1.54-2.83-2.88-3.68-4.6-.68-1.39-.5-3.21-.7-4.84a20,20,0,0,0,4.18-.17,57.83,57.83,0,0,0,6.11-2.28l1.81,6.37c1.24-.17,2.68-.48,4.14-.54,2.47-.11,6.22.94,7.17-.28,2.39-3,3.52-7.08,5.11-10.74.86-2,1.64-3.92,2.45-5.89l4.6,4.83c2.41-1.34,5.59-4.65,8.18-4.24,7,1.11,13.91,3.52,20.59,6.09,1.67.65,2.37,3.83,3.49,5.81l6.46-3.77,1.1,1.26c-1.72,3.78-3.43,7.56-5.71,12.59,6.15-.4,11.41,1.46,14.6-4.75.31-.62,3.46-.71,3.64-.3,2,4.59,6.59,4.24,10.21,5.75,1.72.72,4.48,1.87,4.58,3,.46,5.3,4.73,7.29,7.64,10.61,5.46,6.24,4.05,14.45,6.31,22.32,5.78-.74,3.15,4.63,3.56,8.08,4,2.2,8,4.27,11.84,6.5a38.82,38.82,0,0,1,4,3l-4.12,4.44c.68,1.67,1.67,4.15,2.82,7a9.42,9.42,0,0,1,2.68-.52,42.71,42.71,0,0,1,4.73.87c-.9,1.3-1.7,2.69-2.72,3.89-1.78,2.06-4.22,3.73-5.44,6.06-3,5.65-.08,9.91,6.1,10.29a113.36,113.36,0,0,1,13.92,2,3.28,3.28,0,0,1,2.15,2.23,3.68,3.68,0,0,1-1.53,2.92,18.37,18.37,0,0,1-4.35,1.3c4.34,9.54,13.65,17.71,8.67,30.83,6.48-.78,5.44,1.75,4.93,6.48-.68,6.23-.31,12.19-6.46,16.6,2.45,4.9,4.85,9.5,7,14.2.53,1.13.9,3.18.31,3.76a4.69,4.69,0,0,1-4,1c-4.18-1.36-6.57,0-9.47,3.35-2.5,2.9-6.89,4.17-10.3,6.08a15,15,0,0,0,16.77,4.61c1.72-.68,3.88-.25,5.84-.32a55.34,55.34,0,0,1-3,5.11,12.33,12.33,0,0,1-2.66,2.13,48.44,48.44,0,0,1,2.47,7.24c.18,1-.84,2.57-1.78,3.23-.54.39-2.62-.23-2.93-.91-4-8.58-12.19-7.62-20.39-9.49.87,2.1,1.25,4.16,1.81,4.21,5.31.48,5.73,5.12,7.91,8.45,1.68,2.56,4.52,4.35,7.19,6.79-1.71,3.86-4.05,6-8.71,2.59-.86-.64-2.58-.09-4.64-.09,1.92,3.29,3.41,5.34,4.3,7.62a4.22,4.22,0,0,1-1,3.51c-.4.46-2.14.08-3.09-.35-3-1.36-7-4.92-8.77-4-4.59,2.3-8.34,6.44-7.73,12.64a14.13,14.13,0,0,1-.39,3.18c-2.61,0-5.07.52-7.1-.19-1.26-.45-2.22-2.66-2.68-4.26-.8-2.78-1.1-5.7-1.83-9.78l-7.15,8.25L429.05,478c-4.23.62-9.34,2.63-10.44,1.3-4.61-5.6-11.5-8.16-16.1-13.51a4.51,4.51,0,0,1-.62-1.28,32.84,32.84,0,0,1-5.42,1.66c-.28,0-1.6-2.95-1.23-3.32a96.87,96.87,0,0,1,7.57-6.4c-4-2.39-11.72-3.61-9-13.16-1.6,1-2.33,1.77-3.14,1.86a26.52,26.52,0,0,1-4.35-.15,19.27,19.27,0,0,1,.5-4.27,19.47,19.47,0,0,1,2.33-4.1c2.52-3.88,2.82-7.67-.51-11.35-2.46-.29-5.15-.42-7.74-1-1.12-.24-2.06-1.35-3.08-2.06,1.08-.91,2-2.31,3.27-2.64C389.71,417.3,391.38,418.09,395.84,426.15ZM284.38,287.05l-14.87,15.29,2.76,3.25c12-9.91,15.34-9.41,18.24,2.49l11.55,3.26c-.3-4.62-1.08-8.42-.44-12,.18-1,4.52-1.24,7.35-1.93,1.08-1.39,3.13-3.16,4.07-5.4,1.69-4,4.06-8.44,3.71-12.47-.66-7.47-.05-11.11,5.87-15.42,4.5-3.28,4.5-3.28,3.19-8.4-8.65,3.76-14.35-3.13-21.62-5.76-.37,1.39-.81,3-1.27,4.7,13.27,1.67,14.17,3.43,9.3,16a19,19,0,0,0-.77,7.43c.38,9.54-3.05,15.44-10.91,18.26-4.73,1.7-7.5,0-8.16-5-.15-1.08-.43-2.15-.53-2.65Zm103.79,46.71c-.3.82-.78,2-1.21,3.28-2.38,6.9-5.44,8.84-12.72,8.25a15.24,15.24,0,0,0-4,.52c-5,1-10,2.56-15.08,2.83-5.42.3-7.61,2.74-8,7.73l7.33,3.39c1-2.66,1.54-5.29,2.94-7.33a5.82,5.82,0,0,1,4.62-2.22,36.82,36.82,0,0,1,10.69,3c3,1.45,6.36,3.49,8,6.21,2.52,4.24,3.71,9.28,5.23,13.35l15.51,6.06c5-5.73,11.69-8,18.69-5.53,1.56.55,3.41.3,5.12.42-1-1.86-1.66-4.29-3.22-5.46-2.25-1.68-4.45-1.88-7.7.13-7.19,4.44-15.36,3.06-23.05.52-1.45-.48-2.21-3-3.33-4.53-2-2.78-4.24-5.42-6-8.33-.86-1.4-1.81-4.06-1.17-4.8a21.39,21.39,0,0,1,7.29-5.65c1-.42,3.11,2.15,4.85,3.11.61.34,1.63-.06,1.9-.08Zm-37.91-37c-5.16-1.95-8-2-10.57,2.16-1.59,2.58-5.73,3.5-7.5,6-2.23,3.18,1.21,10.11,5.44,12.09s8.23.84,9.6-3.56C348.9,308.17,349.3,302.45,350.26,296.78ZM337.51,339.2c3.95,2,6.94,4.53,10.06,4.69,3.32.18,7.08-1.39,10.07-3.18,2.37-1.43,1-14.26-.47-15.73C347.38,325,345.09,334.12,337.51,339.2ZM309,261.26c-12.64,1.93-14.65,11-17.42,19.36l3.33-3.31,7.43,7.77c-1.39,1.19.54-.13,2-1.83.81-.93,1.62-3.26,1.19-3.67-3.33-3.24-1.05-6.06.18-9.07C306.81,267.89,307.63,265.17,309,261.26Zm-20.65,56.41-5.41-12.74c-14.51,8.6-12.45,15.84-2.55,25Zm6.11,16.57c3.94-.17,7.66-.71,11.31-.41,5.68.48,6.23-3.09,6.89-7.29.71-4.5-1-6.59-5.33-7.18-1.54-.21-3.19-1.58-4.45-1.22-2,.56-4.78,1.7-5.46,3.34C295.93,325,295.57,329,294.45,334.24ZM407,307.83c-4.25,10.89,8.37,10.65,8.49,17l17.69-10.35Zm-37.32,68.72c1.82-2,3-3.59,4.44-4.93,3.57-3.36,3.5-9.68-.68-11.86-2.24-1.18-5.26-1.09-7.93-1.15-1.65,0-4.63.5-4.75,1.17-.44,2.48-.78,5.66.41,7.59C363.18,370.61,366.39,373.11,369.69,376.55Zm9-148c-4-1.69-7.3-4-7.68,2.6-.1,1.7-1.71,3.39-2.85,4.93-3.71,5-7.53,10-11.27,14.94,4.76,4.41,7.76,3.25,10-.73C370.78,243.26,374.52,236.18,378.68,228.5Zm-7.19,52.22c18.51-3.3,18.51-3.3,23.45-19.08-4.74,3.32-8.09,5.89-11.68,8.08a19.22,19.22,0,0,1-6.92,2.84C369.92,273.5,369.26,274.35,371.49,280.72Zm46.37,123.49c-4.67,0-8.47-.59-12,.14-4.56.94-5.57,4.83-5.52,8.77l16.71,5.54C417.38,412.68,417.62,408.45,417.86,404.21Zm-8-159c-2.35,6.86-2.06,11.59,1.13,12.35s4.69,2.27,6.12,5.32c.87,1.87,4.7,2.35,7.2,3.45.26-2.49,1.63-5.74.56-7.33-3.21-4.73-7.28-8.89-11.24-13.06C412.92,245.21,411.13,245.46,409.88,245.25ZM446.3,447.54l1.44,1.58c2-1.13,4.65-1.84,5.88-3.55.72-1-.58-3.69-1.35-5.44-1.18-2.69-3-5.11-4-7.84-2.27-6.09-.32-9.52,6.33-11-3.67-2.27-4.45-9.26-9.95-6-.41,4.45-.23,8.18-1.17,11.6-1.91,7-1.28,9,5.22,12.48ZM431,366.62c4.16-6.44,10.38-11.44,7.59-19.95-10.7.14-14.22,6.05-12.82,16.07Zm38-3,2.67-.35c0-3.11,1.25-7.82-.25-9-3.77-3-4-6.67-5.29-10.52-.69-2.05-4.13-3.72-6.62-4.32-1-.24-3.56,2.78-3.94,4.61s1.05,5.36,2.06,5.5c5.09.73,6.46,4.4,8,8.28A48,48,0,0,0,469,363.63ZM302.63,352.24l17.05-2.75c-1.54-4.09-3-8-4.35-11.51-4.07.56-10.08-.3-12,2.12-2.11,2.63-.44,8.31-.4,12.66C302.93,352.93,303.1,353.1,302.63,352.24Zm59.19-90.32c1.63,4.95-2.78,10.55,1.41,15.22,2.19-4.13,5.51-7.73,5.84-11.59.57-6.51,3.59-10.82,7.87-15.18,6.09-6.2,5.87-6.42,4-13.52C372.87,243.8,374.34,257.93,361.82,261.92Zm-6.71,6.57c-6.38,1.08-6.59,6.74-7.93,9.67,3,3.82,5.23,6.46,7.29,9.21,1,1.36,1.81,2.91,2.71,4.37.83-1.64,2.05-3.19,2.38-4.92a13,13,0,0,0-.29-5.78C358.14,277,356.63,273,355.11,268.49Zm47.45,163.78c-.93,5.26-1.78,10.14-2.68,15.27l11.81,5.77C412.77,443.84,408.54,435,402.56,432.27ZM335.42,277.71l-15,10.17c-.57,2.38-.37,8,4,8,3.54,0,7.74-4.7,10.35-8.28C336.25,285.5,335.25,281.53,335.42,277.71Zm22.74,36c4.18-1.82,7.39-3.38,10.72-4.62,4-1.48,8.19-8.18,7.37-12.39-.21-1-.85-2.46-1.64-2.75s-2,.63-2.85,1.3c-3,2.44-6.52,4.55-8.6,7.63C360.87,306.26,356,309.29,358.16,313.69Zm-89.22-19.25c10-9.55,10.42-16.46,1.54-28.2l-6.42,12.33C273.63,280.56,273.89,281.65,268.94,294.44Zm113.81,31.39c-4.51,1.45-8.68,1.68-11.1,3.86-2.61,2.37-6.27,5.62-4.13,10.48C381.68,337.23,381.68,337.23,382.75,325.83Zm4.88-26.53c2.91-1.73,4.72-2.84,6.56-3.89s3.77-2.07,5.65-3.1a70.69,70.69,0,0,0-5.16-4.95c-1-.82-2.59-1.66-3.74-1.47-2.25.37-5.33.86-6.3,2.42s-.3,4.65.29,6.89C385.35,296.8,386.82,298.12,387.63,299.3ZM430.4,444.72c-1.64-2.43-3.41-5-5.17-7.61l-7,5.41c.4,5.74.76,10.88,1.15,16.46ZM461,374.41c-1.08-6.65-6.35-10.9-14.9-11.85-.56,3.86-1.12,7.73-1.71,11.85ZM419.73,340l1.27,1.66c5.12-1.44,10.33-2.64,15.32-4.42,1.93-.69,4.52-2.55,4.74-4.16.25-1.79-1.44-4.73-3.1-5.59-1.19-.62-3.88,1.1-5.61,2.23-3.13,2-6.09,4.35-9,6.67A42.18,42.18,0,0,0,419.73,340Zm5-63.91c-4.29,6-5.27,15-16.16,13.17,1.29,3.16,2.06,5,2.94,7.17,4.76-2.87,9.09-5.16,13.07-8C429.84,284.79,429.88,281.49,424.74,276.1Zm-140.57,5.76c3.05-7.16,5.82-13.68,8.69-20.44L288.65,260l-9.25,5.87C280.81,270.6,282.29,275.57,284.17,281.86ZM393.89,313l1.4-.86c-1.44-1.64-2.72-4.45-4.37-4.69-4.27-.62-10.65,4.34-9.54,7.25.85,2.23,4.22,4.52,6.71,4.83C391.79,319.93,396,318.91,393.89,313Zm54.58,19.92c-1.61,3.43-4,6.41-4.23,9.53-.25,3.84,1.35,7.8,2.19,11.86l12,6.11c.35-.55.7-1.1,1.06-1.65-1.61-1.06-3.47-1.87-4.76-3.24-2-2.1-5.09-4.67-5-6.88.25-4.44,2.36-8.78,3.71-13.16.15-.49.33-1,.54-1.61ZM466.38,401c-2.76-6.45-5.63-9.86-10.48-9.09-2.72.43-6.39,2.35-7.37,4.59-1.62,3.73,2.41,3.12,4.66,3.69,1.3.32,2.49,1.53,3.73,1.54C459.77,401.79,462.61,401.34,466.38,401Zm-72.27-38c5.23,0,9.59.41,13.81-.2,1.7-.25,3.14-2.68,4.49-4.31.09-.11-1.55-2.45-2.43-2.48-6-.24-12-.12-18.68-.12C392.44,358.81,393.36,361.13,394.11,363Zm26-14.78c-7.75-2.89-8.6-5.33-5.09-14.8L409.89,331c-3.62,5.91,4.17,14.58-5.89,19.12,7.49-2.2,12.9-1.16,16.1,5.62ZM435,376.09l-2.71-.51L424,386.78l.6,1.75h12.45ZM316,298.75l-6.28,8.7c6.41,6.63,10,7.76,12.83,3.09C326.5,303.94,318.72,302.81,316,298.75Zm87.77,89.56c8.28,4.79,14,1.29,14.14-8.27C409.82,378.4,406.15,380.47,403.75,388.31ZM362.27,221.09c-8.59,7.67-8.22,21.38-21.56,24.12,5.91,2.48,14.07-.91,15.4-5C358,234.37,359.86,228.56,362.27,221.09Zm-39.23,52,.88.67c3-1.7,6.39-3,8.91-5.21a38.2,38.2,0,0,0,7.15-9.11c.62-1.06-.72-3.28-1.17-5-1.86,1.13-5.32,2.27-5.31,3.4,0,6.26-3.36,9.64-8.35,12.28C324.2,270.7,323.73,272.13,323,273.13ZM444.25,407.59l-5.06-7.53-9.68,1.34C428.67,410,432.73,411.64,444.25,407.59ZM411.16,272.88c-4.5-1.33-11.59,1.92-11.82,5.94-.08,1.31,2.48,3.55,4.2,4C407.57,284,410.72,279.59,411.16,272.88Zm-34.9-10.4c6.73-2.15,15.88-1.32,15.9-12.38C381.87,247.83,382.63,259.88,376.26,262.48Zm21.05,64.32c-3.95,10.88-3,13.83,4.52,14.4.41-4.37.81-8.75,1.25-13.54Zm-76.19,12.77c1.32,1.77,2.38,3.85,4,5.23,2.18,1.83,4.84,3.07,7.25,4.62,2.17,1.4,4.28,2.88,6.42,4.32C335.57,346.15,331.88,339.34,321.12,339.57Zm61.51,52c-8.37-6.09-1.43-10.53-1-16.08l-11.74,9.66C372.51,388.89,375.14,392.9,382.63,391.61Zm60.92-89.2c-3.55-6.17-14.94-9.34-18.85-5.1C430.8,299.86,435.93,305.1,443.55,302.41Zm-42-59.35c-1.54,4.85-3,9.4-4,12.71,1.57,4,2.86,7.24,4.27,10.79l4.83-1.93-2-.32C403.64,257.4,402.64,250.5,401.56,243.06ZM390.33,393l5.17,11.61,11.29-8.35ZM344.78,266.7l.87,1.23,10.62-8.21-7.22-7.94C347.49,257.26,346.13,262,344.78,266.7Zm93.33,52.91,7.33,3.92V311.05h-6.67c0,1.71.08,3.07,0,4.41S438.35,318.09,438.11,319.61Zm-61.5-.94c-.18-.42-.46-1.15-.79-1.86-.46-1-.95-1.95-1.42-2.9-12.28,5.16-12.47,5.39-9.19,10.69Zm59.52,119.41,1.72-17-1.85-.54c-.69,1.63-1.44,3.24-2.06,4.89a38.56,38.56,0,0,1-1.56,4.62C429.92,434.63,430.75,436.51,436.13,438.08Zm-50-27.72c5.82-4.51,2-7.92-.42-11.23-.48-.67-2.23-.43-3.39-.61.65,3.38,1.24,6.76,2,10.11C384.47,409.23,385.36,409.66,386.12,410.36Zm75.82-24.6c-4.39-6-9.4-3.57-13.85-3.64a9.83,9.83,0,0,0-4.06,1.31,3.16,3.16,0,0,0,.25,2.05,24.53,24.53,0,0,0,5,.57c2.64,0,5.28-.2,7.92-.28C458.42,385.73,459.66,385.76,461.94,385.76Zm-68.8,1.17,1.55-1.6c-1.1-1.89-2.6-5.52-3.24-5.37-2.7.62-5.14,2.36-7.68,3.69l.69,2.24Zm37.2,64,4.93,9.24c1.89-3.05,3.62-5.87,5.69-9.24Zm-.45-34.77-6.51-5c.58,5.64,1.07,10.3,1.55,15l1.6-.22ZM337.43,241.61c-7.28-1-7.28-1-7.08,10.44Zm-2.13,87.66-.09-1.09-12-3.76c-.47,1.45-1,3.14-1.78,5.55Zm89.55,65.63c-.4-.73-.8-1.46-1.21-2.19l-12,4.68,11.86,2C423.89,398.15,424.37,396.53,424.85,394.9Zm-25-88.46c5.92-7.18,5.92-7.18,5.08-8.78l-9.9,4.36ZM414,431.91c.83-2.25,1.45-4,2.26-6.15l-10.1-.92-.72,1.37Zm-6.55,28.58-1.37,1.66,7.62,4.22c.17-3,.24-4.3.33-5.88Z" transform="translate(-8.33 -8.46)"/><path class="cls-2" d="M144.12,128.49c3.92-5.24,2.32-7-8.61-9.26-.14-1.77-.29-3.66-.51-6.37,5.69,6.61,13.28,6.72,20,6.77,4.69,0,10.3-3.37,11.12-9.37.7-5.13,3.35-6,7.6-5.63,1.75.16,3.65-.33,5.27.18s2.82,1.85,4.85,3.28c-5.89,2-10.6,2.93-14.52,5.23-2.35,1.38-5,5.09-4.74,7.44.37,3.21,3.31,6.18,5.35,9.11.24.34,2.43,0,2.53-.36.33-1.17.64-3,0-3.69-4.24-4.77-3.06-7.56,2.59-9.94,5.32-2.24,13.52-1.3,15.66,2.51a5.25,5.25,0,0,1-3.46,7.7c-3.24.78-6.56,1.29-9.71,2.34-1.41.48-2.46,2-3.68,3,1.49,1,2.9,2.72,4.47,2.86,2.83.27,5.75-.4,8.65-.68-.37,4-.46,3.82-9.11,2.86-4-.44-8.1-.08-12.53-.08-.24-.8-.6-1.88-.91-3-1.86-6.45-6-8-12.21-5.12-2.35,1.09-5.09,1.35-7.65,2Z" transform="translate(-8.33 -8.46)"/><path class="cls-2" d="M157.73,195.12c-.66,3.24-1.23,6.06-2.09,10.31-1.23-7.41-2.6-13.68-10.56-11.76-.49-4.84-1.19-9.17-1.23-13.5,0-2,1.08-4.07,2-5.92,1.74-3.43,1.35-5.72-2.79-6.39-4.38-.72-8.77-1.33-13.8-2.07-.15-.63-.51-2.07-1-3.91l18.29,2.5L154.28,175C146.35,186,147.05,191.15,157.73,195.12Z" transform="translate(-8.33 -8.46)"/><path class="cls-2" d="M73.73,136.7c-3.62.54-6.21.49-8.44,1.36-4.37,1.72-7.14-.55-8.64-3.8a10.69,10.69,0,0,1-.07-7.83c1.19-2.77,3.68-5.09,6-7.2a4.74,4.74,0,0,1,4.23-.7c1.09.48,2.48,2.67,2.17,3.56C66.91,127.94,68.39,132.73,73.73,136.7Z" transform="translate(-8.33 -8.46)"/><path class="cls-2" d="M194.44,95h8.17c5.93,0,6.8,3.83,6.94,8.63.16,5.56-3.84,4.38-7,4.67a79.69,79.69,0,0,1-9.37.62c-1.74,0-3.46-1-5.4-2.41C194.81,105.35,196.2,101.34,194.44,95Z" transform="translate(-8.33 -8.46)"/><path class="cls-2" d="M62.25,106.48c10.29,3.17,9.54-7.52,15.66-11.56,2.73,2.61,5.93,5.11,8.33,8.23,1,1.31,1.14,4.49.22,5.78S82.8,111,80.85,111c-5,0-10-.37-15-.84C64.52,110,63.27,109,62,108.43Z" transform="translate(-8.33 -8.46)"/><path class="cls-2" d="M133.3,107.7,118.2,96.06c7.28-1.21,10.46-11.49,18.29-4.69C139.5,94,137.61,103.13,133.3,107.7Z" transform="translate(-8.33 -8.46)"/><path class="cls-2" d="M204.76,126.13c1.42.64,2.49,1,3.45,1.57,2.13,1.24,6.79-1.1,6.13,4.08-.6,4.72-2.15,8.69-7.88,9.34-5.29.6-11.7-3.08-13.07-8.45C199.27,134.37,202.7,131.48,204.76,126.13Z" transform="translate(-8.33 -8.46)"/><path class="cls-2" d="M111.54,89.36c-2.37-2.18-4.5-4.16-6.87-6.35,3.25-4.07,3.71-9.78,10.49-9.92,5-.11,5.66,3.75,6.7,6.64.53,1.48-1.15,4.47-2.68,5.81C117.21,87.26,114.4,88,111.54,89.36Z" transform="translate(-8.33 -8.46)"/><path class="cls-2" d="M164.75,51.49,152.61,62.85l-1.9.32c4.47-7.13.46-10.88-3.63-15-2.39-2.39-.14-3.68,2.33-4.16C156.68,42.62,160.16,44.29,164.75,51.49Z" transform="translate(-8.33 -8.46)"/><path class="cls-2" d="M222.42,98.9c0-3.78.7-7.24-.15-10.25-1.56-5.47,1.9-6.7,5.56-7.47,4.48-1,9,2.09,8.08,5.77-.81,3.33-3.42,6.54-6,9C228.09,97.64,225,98,222.42,98.9Z" transform="translate(-8.33 -8.46)"/><path class="cls-2" d="M172.33,152.07a32.71,32.71,0,0,1-6-4.12c-.52-.51.88-4.51,1.69-4.62a92.92,92.92,0,0,1,16.07-.78c1.09.06,2.92,3.18,2.8,4.78s-2.11,3.69-3.65,4.08C180.29,152.16,177.05,151.86,172.33,152.07Z" transform="translate(-8.33 -8.46)"/><path class="cls-2" d="M226.14,53.55c-.39,5.45-.45,10.09-1.12,14.64s-4.78,3.47-7.53,3.2c-1.43-.14-3.6-2.46-3.79-4C213,61.47,213.92,57.09,226.14,53.55Z" transform="translate(-8.33 -8.46)"/><path class="cls-2" d="M239.56,104.27c-.52,4.51-.9,9-1.66,13.53-.2,1.18-1.69,3.13-2.43,3a82.76,82.76,0,0,1-13-2.32c-.36-.09-.56-4.53.32-5.08C228.38,110,234.27,107.1,239.56,104.27Z" transform="translate(-8.33 -8.46)"/><path class="cls-2" d="M192.88,73.46c2.52,1.6,4.7,2.87,6.75,4.32,1.59,1.13,3,2.5,4.52,3.77-1.36,1.52-2.46,3.55-4.16,4.42-1.52.77-3.75.59-5.55.25-4-.76-8-1.88-12.82-3Z" transform="translate(-8.33 -8.46)"/><path class="cls-2" d="M87.39,155.1c-2.56-3.58-4.83-6.73-7.34-10.23,4-4.24,8.87-4.94,14.09-3.09a5.74,5.74,0,0,1,3.18,4.06C97.72,152.45,92,153,87.39,155.1Z" transform="translate(-8.33 -8.46)"/><path class="cls-2" d="M98.44,69.22c-2-5-4.07-9.5-5.74-14.15-.43-1.18-.09-3.78.5-4,1.65-.57,4.4-1,5.3-.1a66.31,66.31,0,0,1,7.75,10.08c.35.52-.67,2.36-1.48,3.17A77.11,77.11,0,0,1,98.44,69.22Z" transform="translate(-8.33 -8.46)"/><path class="cls-2" d="M154.74,92.46c8.47,6.54,9.87-2.78,14.45-6l11.39,8.77L179.73,97c-7.23.47-14.45,1.17-21.67,1.23-1.45,0-2.91-2.39-4.37-3.68Z" transform="translate(-8.33 -8.46)"/><path class="cls-2" d="M203.17,67.85l4.34-2.78c1.13,3.53,1.56,7,3.31,9.63,1.52,2.27,4.54,3.53,6,4.62V98.09L208,89.85C216.66,80.91,206.33,75.31,203.17,67.85Z" transform="translate(-8.33 -8.46)"/><path class="cls-2" d="M171.32,163.57,164.93,156c9.3,1.36,18.94,5.29,27.53-2.49,6,2.81,6,7.16,3.44,11.77-4.12-1.81-8.06-4.73-12.18-5S175.42,162.38,171.32,163.57Z" transform="translate(-8.33 -8.46)"/><path class="cls-2" d="M202.85,183.86a80.31,80.31,0,0,1,7.07-4.57c2.57-1.33,5.32-2.78,8.1-3.07,2.13-.23,4.43,1.28,6.66,2-1.05,1.88-1.66,4.71-3.24,5.44-3.81,1.78-7.64,5.1-12.49,1.87-1.18-.78-3.33-.11-5-.11Z" transform="translate(-8.33 -8.46)"/><path class="cls-2" d="M194.92,177.34c-4.36-.3-9,.24-13-1.23-2.33-.87-3.47-4.91-5.14-7.53,2.76-.91,6.31-3.36,8.12-2.42,4.14,2.14,7.42,5.94,11,9.06Z" transform="translate(-8.33 -8.46)"/><path class="cls-2" d="M75.78,158.51a63.46,63.46,0,0,1-7.18,3,75.29,75.29,0,0,1-8.3,1.42C58,160.45,59,153.71,63.73,151c6.44-3.69,7.83,4.1,12,5.88Z" transform="translate(-8.33 -8.46)"/><path class="cls-2" d="M71.53,179.8c-.1-7.2,7.69-12.42,12.63-10,1.22.61,3,2.6,2.76,3.19-1.18,2.75-2.51,5.8-4.7,7.64-1.69,1.4-4.78,1.62-7.19,1.46C73.55,182.05,72.17,180.26,71.53,179.8Z" transform="translate(-8.33 -8.46)"/><path class="cls-2" d="M132,194.19c-4,7.41-9.44,3.32-13.57.87-2.16-1.28-2.49-5.67-3.85-9.15C123,185.37,127.92,188,132,194.19Z" transform="translate(-8.33 -8.46)"/><path class="cls-2" d="M130.64,116.48c-2.86,4.76-5.24,8.7-7.6,12.64-7.75-3.05-8.6-6.92-3.64-16.25Z" transform="translate(-8.33 -8.46)"/><path class="cls-2" d="M129.77,204c8.8,5.18,12.17-3.06,18-5.18.1,4.91-7.89,16.33-11.68,16.81-1.31.16-3.49-1.48-4.19-2.85C130.81,210.68,130.69,208.12,129.77,204Z" transform="translate(-8.33 -8.46)"/><path class="cls-2" d="M134.3,81.2c5.5-6.76,12.8-6.06,20.09-4.88a4.47,4.47,0,0,1,3,2.91c.14,1.17-1,3-2.12,3.73a6.69,6.69,0,0,1-4.37,1C145.49,83.2,140.09,82.18,134.3,81.2Z" transform="translate(-8.33 -8.46)"/><path class="cls-2" d="M252.35,103.83q2.73-6.08,5.24-11.66c3.27,1.3,6.26,1.62,7.7,3.29,1.79,2.06,2.29,5.24,3.35,7.94-2.21.14-4.41.35-6.62.41C259.33,103.89,256.64,103.83,252.35,103.83Z" transform="translate(-8.33 -8.46)"/><path class="cls-2" d="M124.06,52.44c1.79,6.56,4.86,8.24,10.1,7.53,1.66-.22,3.76,2.88,5.66,4.45-2.14.81-4.4,2.49-6.41,2.22-3.19-.42-6.32-1.93-9.29-3.37-2-1-3.57-2.59-5.34-3.93Z" transform="translate(-8.33 -8.46)"/><path class="cls-2" d="M160.34,106.75c-1.09,8.19-1.44,8.46-8.6,7-2.47-.5-4.93-1-7.38-1.59-.31-.07-.53-.53-.81-.83C146,103.76,148.19,103.13,160.34,106.75Z" transform="translate(-8.33 -8.46)"/><path class="cls-2" d="M140.56,146c.92,4.38,8.66,7.79,2.48,12.61-1.93,1.51-8.09-.91-11.29-3.07C129.21,153.86,133.53,148.74,140.56,146Z" transform="translate(-8.33 -8.46)"/><path class="cls-2" d="M203.69,52.74c-.47,2.44-.94,4.85-1.76,9.06-4.13-8.9-9.92-7.36-16.87-4.94,1.12-3.08,1.45-5.73,2.88-7.46,2.34-2.83,5.12-5.66,8.83-.91C198.19,50.32,200.93,51.11,203.69,52.74Z" transform="translate(-8.33 -8.46)"/><path class="cls-2" d="M169.09,197.31l-6-4.79c4.1-3.83,12.75-3.22,12.41-10.13l22.35,2.38-.1,1.69C186.22,185,175.25,185.06,169.09,197.31Z" transform="translate(-8.33 -8.46)"/><path class="cls-2" d="M146.1,58.32l-14.17-4.89c-2.1-2.07-5.73-5.21-.75-8.66C142,49.31,147,54.18,146.1,58.32Z" transform="translate(-8.33 -8.46)"/><path class="cls-2" d="M174.61,58.17c0,4.27.2,8.31-.06,12.32-.24,3.78-4.91,5.91-7.72,3.41-2.07-1.85-3.42-4.53-6.39-8.62C170.28,69.79,167.92,58.27,174.61,58.17Z" transform="translate(-8.33 -8.46)"/><path class="cls-2" d="M214.55,124.31c-1.56-1.55-3.13-3.1-4.69-4.67-1-1-2.15-3-3.07-3a6.47,6.47,0,0,0-4,2.69c-1.69,2.45-2.9,5.24-5.56,7.55-.33-3.56-.65-7.13-1-10.72l18.62-2.87c.16,2.38.43,6,.69,9.71Z" transform="translate(-8.33 -8.46)"/><path class="cls-2" d="M89.92,90.2c-4.81-2.61-8.75-4.52-12.41-6.86-1-.64-1.21-2.56-1.75-3.82,4.74-.43,8.7-.65,12.63-1.17s5,2,4.51,4.93C92.44,85.87,90.8,88.26,89.92,90.2Z" transform="translate(-8.33 -8.46)"/><path class="cls-2" d="M101.53,131.38c-6.48-4.27-14.21,1.27-19.13-5.88l5.15-4.65,13.56,4.41Z" transform="translate(-8.33 -8.46)"/><path class="cls-2" d="M259.84,146.79c-1.28,8.22-1.28,8.22,10.33,14.35-3.08.23-5.51,1.18-6.52.36-5.89-4.76-7.31-.65-8.73,4a7.69,7.69,0,0,1-1.14,1.7l-6.59-2.35c9.23-6,9.37-6.34,7.07-15.59.9-.44,1.87-.94,2.86-1.38C258,147.48,258.84,147.18,259.84,146.79Z" transform="translate(-8.33 -8.46)"/><path class="cls-2" d="M226.32,141.94c-2.81-9.22-1.29-11.15,6.17-10.6,3,.23,6.13-.43,10.1-.77C239.77,139.19,231,136.69,226.32,141.94Z" transform="translate(-8.33 -8.46)"/><path class="cls-2" d="M97.77,98.54C105.7,96.9,108,98.54,110,105c1.6,5.13-2.4,5.22-6.18,7.26Z" transform="translate(-8.33 -8.46)"/><path class="cls-2" d="M240,65.9c-1.26-6.56,1.67-12.73,5.79-12,2.3.4,6,4.29,5.71,6.11C250.52,66.3,244.65,64.92,240,65.9Z" transform="translate(-8.33 -8.46)"/><path class="cls-2" d="M209.62,172.92l-8.38-7.81c.08-.69.17-1.38.25-2.07l15.07-3.44,1.19,1.84Z" transform="translate(-8.33 -8.46)"/><path class="cls-2" d="M138.43,125.73c-.54,11.23-3.92,14.49-13.06,13C127.27,132.06,133.21,126,138.43,125.73Z" transform="translate(-8.33 -8.46)"/><path class="cls-2" d="M223.1,153.55c.92-.36,2.3-1.31,2.7-1,5.91,4.66,10.88,1.57,16.11-1.47a8,8,0,0,1,5.73-.35c.84.26,1.85,3.24,1.33,4-1,1.41-3,3-4.56,2.93-7-.39-14.07-1.33-21.11-2.08Z" transform="translate(-8.33 -8.46)"/><path class="cls-2" d="M103.58,170.57c-5.9-7-.53-11.48.8-16.34.2-.72,3.25-1.24,4.69-.82.82.24,1.85,2.89,1.43,3.85C108.58,161.59,106.17,165.7,103.58,170.57Z" transform="translate(-8.33 -8.46)"/><path class="cls-2" d="M177.06,202.45c-.52-3.31-1.47-5.79-.88-6.24,4.82-3.69,9.9-7.16,16.76-4.64C192.12,201.32,182.16,196.19,177.06,202.45Z" transform="translate(-8.33 -8.46)"/><path class="cls-2" d="M147.14,136l11.45-3.49q-.08,6.33-.14,12.66l-2.75.95Z" transform="translate(-8.33 -8.46)"/><path class="cls-2" d="M269.61,110.69a6,6,0,0,1,0,1.83,6.06,6.06,0,0,1-.72,1.44l-25.68,2.26,2.56-8.71c3.48,5.67,6.88,5.38,11.6,3.46C260.86,109.54,265.43,110.69,269.61,110.69Z" transform="translate(-8.33 -8.46)"/><path class="cls-2" d="M170.76,181.84l-15.31,7.89c0-3.58-.9-6.46.16-7.93C159.17,176.84,162.6,176.83,170.76,181.84Z" transform="translate(-8.33 -8.46)"/><path class="cls-2" d="M234.89,53.36c-2.65,18.76-2.65,18.76,6.24,19.71l-1.06,4.29c-.33.25-.5.48-.6.46-3.73-1.07-7.46-2.17-10.9-3.18.92-4,2.16-8,2.7-12.13C232.44,53.61,232.29,53.59,234.89,53.36Z" transform="translate(-8.33 -8.46)"/><path class="cls-2" d="M202.92,157.63c-1-5-8.18-6.2-5.61-10.5l15.37.92,1,1.36Z" transform="translate(-8.33 -8.46)"/><path class="cls-2" d="M247.54,136.64q.77-5.53,1.52-11l2.61-1-5-3,16.63-2.6.95,1.94c-9.29,1.54-12.29,9.29-16.83,15.52Z" transform="translate(-8.33 -8.46)"/><path class="cls-2" d="M123,164.71v15.6l-11.26-1.41Z" transform="translate(-8.33 -8.46)"/><path class="cls-2" d="M165.32,164.71c-3.51,3.68-7.18,5.08-11.1,2.24-.59-.43.47-4.81,1.89-6C160.62,157,162.85,160.79,165.32,164.71Z" transform="translate(-8.33 -8.46)"/><path class="cls-2" d="M250.15,171.74c-2.11,2.14-3.4,4.6-5.18,5-5.22,1.3-10.33.81-14.84-5Z" transform="translate(-8.33 -8.46)"/><path class="cls-2" d="M106.69,118.79c5.58,3.86,4,14.47,14,14.3l-1.91,6.11C108.75,135.87,111,125.31,106.69,118.79Z" transform="translate(-8.33 -8.46)"/><path class="cls-2" d="M247.43,136.54c-.15,2.31-.3,4.63-.44,6.84-16,5.89-16,5.89-17.23,4.61l17.78-11.35Z" transform="translate(-8.33 -8.46)"/><path class="cls-2" d="M138.58,185.94c-1.9-2-4.56-4.46-6.87-7.24-.83-1-1.45-3-1-4a6.17,6.17,0,0,1,3.51-3.31c1.45-.42,3.27.42,4.38.61Z" transform="translate(-8.33 -8.46)"/><path class="cls-2" d="M192.26,61.89c0,7.34-6.4,9.24-10.79,14.89V68Z" transform="translate(-8.33 -8.46)"/><path class="cls-2" d="M162.57,153.23,151.68,157c-2.25-4.49-4.48-8.92-6.71-13.36l.66-.39c1.74,2,3.19,4.38,5.31,5.76,1.91,1.23,4.58,1.23,6.87,1.95A43,43,0,0,1,162.57,153.23Z" transform="translate(-8.33 -8.46)"/><path class="cls-2" d="M239.16,191l-10.79,5.29C227.34,186.55,228.61,185.8,239.16,191Z" transform="translate(-8.33 -8.46)"/><path class="cls-2" d="M96,176.17l-8.92-13.76,7.08-3.12C93.6,165.59,98,170.45,96,176.17Z" transform="translate(-8.33 -8.46)"/><path class="cls-2" d="M252.59,141.48c2.35-3.94,4.71-7.88,7.86-13.14,2.44,8.58.47,12.19-6,14.29Z" transform="translate(-8.33 -8.46)"/><path class="cls-2" d="M52,169.76l1.09-2.85,14.38,2.42c-.65,1.72-1.32,3.48-1.67,4.42Z" transform="translate(-8.33 -8.46)"/><path class="cls-2" d="M96.51,181l9.36,5.52c-1.94,2.57-3.57,4.79-7.08,2.62C95.88,187.33,94,185.22,96.51,181Z" transform="translate(-8.33 -8.46)"/><path class="cls-2" d="M149.67,98.75,144,100.27c-.47-4.2-.9-8-1.33-11.8C150.91,87.17,145.08,96.48,149.67,98.75Z" transform="translate(-8.33 -8.46)"/><path class="cls-2" d="M161.76,198.79c5.17,3.52,7.4,6.93,5.43,12.62C162,208.75,160.92,204.84,161.76,198.79Z" transform="translate(-8.33 -8.46)"/><path class="cls-2" d="M234.73,164.46l-13.43,5.63-.87-1.62c1-2,2-4.08,2.92-5.92Z" transform="translate(-8.33 -8.46)"/><path class="cls-2" d="M87.12,135.46,80,137.37c-2.06-3.5-4-6.75-6.28-10.71Z" transform="translate(-8.33 -8.46)"/><path class="cls-2" d="M121.63,157.85c-.65-3.87-1.3-7.74-2-11.83,5.22,1.51,5.22,1.51,3.62,11.71Z" transform="translate(-8.33 -8.46)"/><path class="cls-2" d="M101.36,118.13c-2.32-.43-5.21-.18-6.78-1.5-1.19-1-.71-4-1-6.13l1.73-.55,6.77,6.35Z" transform="translate(-8.33 -8.46)"/><path class="cls-2" d="M258.63,75.62C249,81.46,249,81.46,247.1,76.74Z" transform="translate(-8.33 -8.46)"/><path class="cls-2" d="M50.74,106c6.31-2.59,4.1-2.41,7.54,8.73Z" transform="translate(-8.33 -8.46)"/><path class="cls-2" d="M284.38,287.05l7.47,1.66c.1.5.38,1.57.53,2.65.66,5,3.43,6.72,8.16,5,7.86-2.82,11.29-8.72,10.91-18.26a19,19,0,0,1,.77-7.43c4.87-12.56,4-14.32-9.3-16,.46-1.69.9-3.31,1.27-4.7,7.27,2.63,13,9.52,21.62,5.77,1.31,5.11,1.31,5.11-3.19,8.39-5.92,4.31-6.53,7.95-5.87,15.42.35,4-2,8.45-3.71,12.47-.94,2.24-3,4-4.07,5.4-2.83.69-7.17.93-7.35,1.93-.64,3.54.14,7.34.44,12l-11.55-3.26c-2.9-11.9-6.2-12.4-18.24-2.49l-2.76-3.25Z" transform="translate(-8.33 -8.46)"/><path class="cls-2" d="M388.17,333.76l6.65,14.86c-.27,0-1.29.42-1.9.08-1.74-1-3.89-3.53-4.85-3.11a21.39,21.39,0,0,0-7.29,5.65c-.64.74.31,3.4,1.17,4.8,1.79,2.91,4,5.55,6,8.33,1.12,1.54,1.88,4.05,3.33,4.53,7.69,2.54,15.86,3.92,23.05-.52,3.25-2,5.45-1.81,7.7-.13,1.56,1.17,2.18,3.6,3.22,5.46-1.71-.12-3.56.13-5.12-.42-7-2.45-13.71-.2-18.69,5.53L386,372.76c-1.52-4.07-2.71-9.11-5.23-13.35-1.62-2.72-5-4.76-8-6.21a36.82,36.82,0,0,0-10.69-3,5.82,5.82,0,0,0-4.62,2.22c-1.4,2-1.94,4.67-2.94,7.33l-7.33-3.39c.39-5,2.58-7.43,8-7.73,5.07-.27,10.05-1.86,15.08-2.83a15.24,15.24,0,0,1,4-.52c7.28.59,10.34-1.35,12.72-8.25C387.39,335.8,387.87,334.58,388.17,333.76Z" transform="translate(-8.33 -8.46)"/><path class="cls-2" d="M350.26,296.78c-1,5.67-1.36,11.39-3,16.72-1.37,4.4-5.32,5.55-9.6,3.56S330,308.15,332.19,305c1.77-2.53,5.91-3.45,7.5-6C342.24,294.81,345.1,294.83,350.26,296.78Z" transform="translate(-8.33 -8.46)"/><path class="cls-2" d="M337.51,339.2c7.58-5.08,9.87-14.21,19.66-14.22,1.43,1.47,2.84,14.3.47,15.73-3,1.79-6.75,3.36-10.07,3.18C344.45,343.73,341.46,341.16,337.51,339.2Z" transform="translate(-8.33 -8.46)"/><path class="cls-2" d="M309,261.26c-1.36,3.91-2.18,6.63-3.25,9.25-1.23,3-3.51,5.83-.18,9.07.43.41-.38,2.74-1.19,3.67-1.5,1.7-3.43,3-2,1.83l-7.43-7.77-3.33,3.31C294.34,272.23,296.35,263.19,309,261.26Z" transform="translate(-8.33 -8.46)"/><path class="cls-2" d="M288.34,317.67l-8,12.24c-9.9-9.14-12-16.38,2.55-25Z" transform="translate(-8.33 -8.46)"/><path class="cls-2" d="M294.45,334.24c1.12-5.23,1.48-9.23,3-12.76.68-1.64,3.42-2.78,5.46-3.34,1.26-.36,2.91,1,4.45,1.22,4.3.59,6,2.68,5.33,7.18-.66,4.2-1.21,7.77-6.89,7.29C302.11,333.53,298.39,334.07,294.45,334.24Z" transform="translate(-8.33 -8.46)"/><path class="cls-2" d="M407,307.83l26.18,6.68L415.5,324.86C415.38,318.48,402.76,318.72,407,307.83Z" transform="translate(-8.33 -8.46)"/><path class="cls-2" d="M369.69,376.55c-3.3-3.44-6.51-5.94-8.51-9.18-1.19-1.93-.85-5.11-.41-7.59.12-.67,3.1-1.2,4.75-1.17,2.67.06,5.69,0,7.93,1.15,4.18,2.18,4.25,8.5.68,11.86C372.72,373,371.51,374.51,369.69,376.55Z" transform="translate(-8.33 -8.46)"/><path class="cls-2" d="M378.68,228.5c-4.16,7.68-7.9,14.76-11.81,21.74-2.23,4-5.23,5.14-10,.73,3.74-4.94,7.56-9.9,11.27-14.94,1.14-1.54,2.75-3.23,2.85-4.93C371.38,224.46,374.7,226.81,378.68,228.5Z" transform="translate(-8.33 -8.46)"/><path class="cls-2" d="M371.49,280.72c-2.23-6.37-1.57-7.22,4.85-8.16a19.22,19.22,0,0,0,6.92-2.84c3.59-2.19,6.94-4.76,11.68-8.08C390,277.42,390,277.42,371.49,280.72Z" transform="translate(-8.33 -8.46)"/><path class="cls-2" d="M417.86,404.21c-.24,4.24-.48,8.47-.81,14.45l-16.71-5.54c0-3.94,1-7.83,5.52-8.77C409.39,403.62,413.19,404.21,417.86,404.21Z" transform="translate(-8.33 -8.46)"/><path class="cls-2" d="M409.88,245.25c1.25.21,3,0,3.77.73,4,4.17,8,8.33,11.24,13.06,1.07,1.59-.3,4.84-.56,7.33-2.5-1.1-6.33-1.58-7.2-3.45-1.43-3.05-2.83-4.55-6.12-5.32S407.53,252.11,409.88,245.25Z" transform="translate(-8.33 -8.46)"/><path class="cls-2" d="M446.3,447.54l2.39-8.23c-6.5-3.44-7.13-5.52-5.22-12.48.94-3.42.76-7.15,1.17-11.6,5.5-3.23,6.28,3.76,9.95,6-6.65,1.51-8.6,4.94-6.33,11,1,2.73,2.83,5.15,4,7.84.77,1.75,2.07,4.45,1.35,5.44-1.23,1.71-3.85,2.42-5.88,3.55Z" transform="translate(-8.33 -8.46)"/><path class="cls-2" d="M431,366.62l-5.23-3.88c-1.4-10,2.12-15.93,12.82-16.07C441.34,355.18,435.12,360.18,431,366.62Z" transform="translate(-8.33 -8.46)"/><path class="cls-2" d="M469,363.63a48,48,0,0,1-3.33-5.8c-1.58-3.88-2.95-7.55-8-8.28-1-.14-2.41-3.79-2.06-5.5s3-4.85,3.94-4.61c2.49.6,5.93,2.27,6.62,4.32,1.28,3.85,1.52,7.55,5.29,10.52,1.5,1.18.25,5.89.25,9Z" transform="translate(-8.33 -8.46)"/><path class="cls-2" d="M302.63,352.24c.47.86.3.69.29.52,0-4.35-1.71-10,.4-12.66,1.93-2.42,7.94-1.56,12-2.12,1.33,3.51,2.81,7.42,4.35,11.51Z" transform="translate(-8.33 -8.46)"/><path class="cls-2" d="M361.82,261.92c12.52-4,11.05-18.12,19.15-25.07,1.84,7.1,2.06,7.32-4,13.52-4.28,4.36-7.3,8.67-7.87,15.18-.33,3.86-3.65,7.46-5.84,11.59C359,272.47,363.45,266.87,361.82,261.92Z" transform="translate(-8.33 -8.46)"/><path class="cls-2" d="M355.11,268.49c1.52,4.51,3,8.48,4.16,12.55a13,13,0,0,1,.29,5.78c-.33,1.73-1.55,3.28-2.38,4.92-.9-1.46-1.69-3-2.71-4.37-2.06-2.75-4.26-5.39-7.29-9.21C348.52,275.23,348.73,269.57,355.11,268.49Z" transform="translate(-8.33 -8.46)"/><path class="cls-2" d="M402.56,432.27c6,2.77,10.21,11.57,9.13,21l-11.81-5.77C400.78,442.41,401.63,437.53,402.56,432.27Z" transform="translate(-8.33 -8.46)"/><path class="cls-2" d="M335.42,277.71c-.17,3.82.83,7.79-.7,9.89-2.61,3.58-6.81,8.27-10.35,8.28-4.35,0-4.55-5.62-4-8Z" transform="translate(-8.33 -8.46)"/><path class="cls-2" d="M358.16,313.69c-2.17-4.4,2.71-7.43,5-10.83,2.08-3.08,5.62-5.19,8.6-7.63.82-.67,2.14-1.57,2.85-1.3s1.43,1.72,1.64,2.75c.82,4.21-3.38,10.91-7.37,12.39C365.55,310.31,362.34,311.87,358.16,313.69Z" transform="translate(-8.33 -8.46)"/><path class="cls-2" d="M268.94,294.44c4.95-12.79,4.69-13.88-4.88-15.87l6.42-12.33C279.36,278,278.9,284.89,268.94,294.44Z" transform="translate(-8.33 -8.46)"/><path class="cls-2" d="M382.75,325.83c-1.07,11.4-1.07,11.4-15.23,14.34-2.14-4.86,1.52-8.11,4.13-10.48C374.07,327.51,378.24,327.28,382.75,325.83Z" transform="translate(-8.33 -8.46)"/><path class="cls-2" d="M387.63,299.3c-.81-1.18-2.28-2.5-2.7-4.1-.59-2.24-1.3-5.26-.29-6.89s4.05-2.05,6.3-2.42c1.15-.19,2.71.65,3.74,1.47a70.69,70.69,0,0,1,5.16,4.95c-1.88,1-3.78,2-5.65,3.1S390.54,297.57,387.63,299.3Z" transform="translate(-8.33 -8.46)"/><path class="cls-2" d="M430.4,444.72l-11,14.26c-.39-5.58-.75-10.72-1.15-16.46l7-5.41C427,439.69,428.76,442.29,430.4,444.72Z" transform="translate(-8.33 -8.46)"/><path class="cls-2" d="M461,374.41H444.39c.59-4.12,1.15-8,1.71-11.85C454.65,363.51,459.92,367.76,461,374.41Z" transform="translate(-8.33 -8.46)"/><path class="cls-2" d="M419.73,340a42.18,42.18,0,0,1,3.59-3.61c2.94-2.32,5.9-4.63,9-6.67,1.73-1.13,4.42-2.85,5.61-2.23,1.66.86,3.35,3.8,3.1,5.59-.22,1.61-2.81,3.47-4.74,4.16-5,1.78-10.2,3-15.32,4.42Z" transform="translate(-8.33 -8.46)"/><path class="cls-2" d="M424.74,276.1c5.14,5.39,5.1,8.69-.15,12.38-4,2.8-8.31,5.09-13.07,8-.88-2.15-1.65-4-2.94-7.17C419.47,291.15,420.45,282.15,424.74,276.1Z" transform="translate(-8.33 -8.46)"/><path class="cls-2" d="M284.17,281.86c-1.88-6.29-3.36-11.26-4.77-15.95l9.25-5.87,4.21,1.38C290,268.18,287.22,274.7,284.17,281.86Z" transform="translate(-8.33 -8.46)"/><path class="cls-2" d="M393.89,313c2.09,6-2.1,7-5.8,6.53-2.49-.31-5.86-2.6-6.71-4.83-1.11-2.91,5.27-7.87,9.54-7.25,1.65.24,2.93,3.05,4.37,4.69Z" transform="translate(-8.33 -8.46)"/><path class="cls-2" d="M448.47,332.87l5.5,1c-.21.63-.39,1.12-.54,1.61-1.35,4.38-3.46,8.72-3.71,13.16-.12,2.21,3,4.78,5,6.88,1.29,1.37,3.15,2.18,4.76,3.24-.36.55-.71,1.1-1.06,1.65l-12-6.11c-.84-4.06-2.44-8-2.19-11.86C444.44,339.28,446.86,336.3,448.47,332.87Z" transform="translate(-8.33 -8.46)"/><path class="cls-2" d="M466.38,401c-3.77.33-6.61.78-9.46.73-1.24,0-2.43-1.22-3.73-1.54-2.25-.57-6.28,0-4.66-3.69,1-2.24,4.65-4.16,7.37-4.59C460.75,391.15,463.62,394.56,466.38,401Z" transform="translate(-8.33 -8.46)"/><path class="cls-2" d="M394.11,363c-.75-1.91-1.67-4.23-2.81-7.11,6.71,0,12.7-.12,18.68.12.88,0,2.52,2.37,2.43,2.48-1.35,1.63-2.79,4.06-4.49,4.31C403.7,363.45,399.34,363,394.11,363Z" transform="translate(-8.33 -8.46)"/><path class="cls-2" d="M420.1,348.26v7.45c-3.2-6.78-8.61-7.82-16.1-5.62,10.06-4.54,2.27-13.21,5.89-19.12l5.12,2.49C411.5,342.93,412.35,345.37,420.1,348.26Z" transform="translate(-8.33 -8.46)"/><path class="cls-2" d="M435,376.09l2.13,12.44H424.63l-.6-1.75,8.21-11.2Z" transform="translate(-8.33 -8.46)"/><path class="cls-2" d="M316,298.75c2.74,4.06,10.52,5.19,6.55,11.79-2.81,4.67-6.42,3.54-12.83-3.09Z" transform="translate(-8.33 -8.46)"/><path class="cls-2" d="M403.75,388.31c2.4-7.84,6.07-9.91,14.14-8.27C417.78,389.6,412,393.1,403.75,388.31Z" transform="translate(-8.33 -8.46)"/><path class="cls-2" d="M362.27,221.09c-2.41,7.47-4.29,13.28-6.16,19.09-1.33,4.12-9.49,7.51-15.4,5C354.05,242.47,353.68,228.76,362.27,221.09Z" transform="translate(-8.33 -8.46)"/><path class="cls-2" d="M323,273.13c.69-1,1.16-2.43,2.11-2.93,5-2.64,8.36-6,8.35-12.28,0-1.13,3.45-2.27,5.31-3.4.45,1.68,1.79,3.9,1.17,5a38.2,38.2,0,0,1-7.15,9.11c-2.52,2.25-5.91,3.51-8.91,5.21Z" transform="translate(-8.33 -8.46)"/><path class="cls-2" d="M444.25,407.59c-11.52,4.05-15.58,2.38-14.74-6.19l9.68-1.34Z" transform="translate(-8.33 -8.46)"/><path class="cls-2" d="M411.16,272.88c-.44,6.71-3.59,11.08-7.62,10-1.72-.48-4.28-2.72-4.2-4C399.57,274.8,406.66,271.55,411.16,272.88Z" transform="translate(-8.33 -8.46)"/><path class="cls-2" d="M376.26,262.48c6.37-2.6,5.61-14.65,15.9-12.38C392.14,261.16,383,260.33,376.26,262.48Z" transform="translate(-8.33 -8.46)"/><path class="cls-2" d="M397.31,326.8l5.77.86c-.44,4.79-.84,9.17-1.25,13.54C394.33,340.63,393.36,337.68,397.31,326.8Z" transform="translate(-8.33 -8.46)"/><path class="cls-2" d="M321.12,339.57c10.76-.23,14.45,6.58,17.7,14.17-2.14-1.44-4.25-2.92-6.42-4.32-2.41-1.55-5.07-2.79-7.25-4.62C323.5,343.42,322.44,341.34,321.12,339.57Z" transform="translate(-8.33 -8.46)"/><path class="cls-2" d="M382.63,391.61c-7.49,1.29-10.12-2.72-12.73-6.42l11.74-9.66C381.2,381.08,374.26,385.52,382.63,391.61Z" transform="translate(-8.33 -8.46)"/><path class="cls-2" d="M443.55,302.41c-7.62,2.69-12.75-2.55-18.85-5.1C428.61,293.07,440,296.24,443.55,302.41Z" transform="translate(-8.33 -8.46)"/><path class="cls-2" d="M401.56,243.06c1.08,7.44,2.08,14.34,3.09,21.25l2,.32-4.83,1.93c-1.41-3.55-2.7-6.83-4.27-10.79C398.58,252.46,400,247.91,401.56,243.06Z" transform="translate(-8.33 -8.46)"/><path class="cls-2" d="M390.33,393l16.46,3.26-11.29,8.35Z" transform="translate(-8.33 -8.46)"/><path class="cls-2" d="M344.78,266.7c1.35-4.72,2.71-9.44,4.27-14.92l7.22,7.94-10.62,8.21Z" transform="translate(-8.33 -8.46)"/><path class="cls-2" d="M438.11,319.61c.24-1.52.53-2.83.64-4.15s0-2.7,0-4.41h6.67v12.48Z" transform="translate(-8.33 -8.46)"/><path class="cls-2" d="M376.61,318.67l-11.4,5.93c-3.28-5.3-3.09-5.53,9.19-10.69.47.95,1,1.92,1.42,2.9C376.15,317.52,376.43,318.25,376.61,318.67Z" transform="translate(-8.33 -8.46)"/><path class="cls-2" d="M436.13,438.08c-5.38-1.57-6.21-3.45-3.75-8.06a38.56,38.56,0,0,0,1.56-4.62c.62-1.65,1.37-3.26,2.06-4.89l1.85.54Z" transform="translate(-8.33 -8.46)"/><path class="cls-2" d="M386.12,410.36c-.76-.7-1.65-1.13-1.79-1.73-.78-3.35-1.37-6.73-2-10.11,1.16.18,2.91-.06,3.39.61C388.08,402.44,391.94,405.85,386.12,410.36Z" transform="translate(-8.33 -8.46)"/><path class="cls-2" d="M461.94,385.76c-2.28,0-3.52,0-4.76,0-2.64.08-5.28.29-7.92.28a24.53,24.53,0,0,1-5-.57,3.16,3.16,0,0,1-.25-2.05,9.83,9.83,0,0,1,4.06-1.31C452.54,382.19,457.55,379.72,461.94,385.76Z" transform="translate(-8.33 -8.46)"/><path class="cls-2" d="M393.14,386.93l-8.68-1-.69-2.24c2.54-1.33,5-3.07,7.68-3.69.64-.15,2.14,3.48,3.24,5.37Z" transform="translate(-8.33 -8.46)"/><path class="cls-2" d="M430.34,450.92H441c-2.07,3.37-3.8,6.19-5.69,9.24Z" transform="translate(-8.33 -8.46)"/><path class="cls-2" d="M429.89,416.15l-3.36,9.71-1.6.22c-.48-4.66-1-9.32-1.55-15Z" transform="translate(-8.33 -8.46)"/><path class="cls-2" d="M337.43,241.61l-7.08,10.44C330.15,240.61,330.15,240.61,337.43,241.61Z" transform="translate(-8.33 -8.46)"/><path class="cls-2" d="M335.3,329.27l-13.85.7c.77-2.41,1.31-4.1,1.78-5.55l12,3.76Z" transform="translate(-8.33 -8.46)"/><path class="cls-2" d="M424.85,394.9c-.48,1.63-1,3.25-1.34,4.51l-11.86-2,12-4.68C424.05,393.44,424.45,394.17,424.85,394.9Z" transform="translate(-8.33 -8.46)"/><path class="cls-2" d="M399.89,306.44,395.07,302l9.9-4.36C405.81,299.26,405.81,299.26,399.89,306.44Z" transform="translate(-8.33 -8.46)"/><path class="cls-2" d="M414,431.91l-8.56-5.7.72-1.37,10.1.92C415.49,428,414.87,429.66,414,431.91Z" transform="translate(-8.33 -8.46)"/><path class="cls-2" d="M407.49,460.49h6.58c-.09,1.58-.16,2.89-.33,5.88l-7.62-4.22Z" transform="translate(-8.33 -8.46)"/><path class="cls-3" d="M283.86,241.19l12.7-2.86c-2-6.71-4.21-13.17-5.82-19.77-.37-1.52,1.24-3.53,1.94-5.32,1.22,1.3,3.05,2.39,3.55,3.91,1.91,5.94,3.39,12,5.11,18.3,5.79-3.11,8.41-6.65,4.64-12.73a25.77,25.77,0,0,1-3-7.7c-.33-1.4.48-3.07.77-4.61,1.39.83,3.31,1.33,4.06,2.56,2.35,3.84,4.27,8,6.32,11.91.47.13.91.41,1.2.3,12-4.53,10.65-2.45,8-14.82-.58-2.69-1.5-5.36-1.71-8.08-.14-1.86.69-3.79,1.08-5.68,1.44,1.52,3.33,2.82,4.19,4.62,1.09,2.26,1.33,4.93,1.95,7.41.58,2.28,1.18,4.55,1.93,7.43l9.68-3.25c-.67-5.74-1.55-11.33-1.84-16.95-.09-1.71,1.45-3.5,2.24-5.26,1.12,1.57,2.79,3,3.24,4.74a60,60,0,0,1,1.31,9.95c.65,7.88.6,7.88,9.45,8,.37-4.74.62-9.57,1.21-14.36.18-1.44,1.34-2.75,2.05-4.12,1.11,1.2,3.08,2.33,3.19,3.61.39,4.67.15,9.39.15,14.76l9.33,1.87c0-5.92-.38-11.22.2-16.42.21-1.9,2.68-3.55,4.12-5.32.64,2,1.71,4,1.82,6.09a93.06,93.06,0,0,1-.45,10c-.36,6.73,3.26,9.41,9.65,9.44-.55-4.22-1.26-8.42-1.59-12.65a9.85,9.85,0,0,1,1-5.12c.62-1.14,2.29-1.72,3.48-2.55.67,1.24,1.7,2.41,1.92,3.73,1,5.75,1.6,11.56,2.63,17.31.27,1.47,1.55,2.76,2.83,4.93l8-19.63,2.69.51c.14,2,.74,4.14.31,6-.87,3.83-2.6,7.47-3.38,11.31-.4,1.93.51,4.12.82,6.2l2.2.29c2.47-4.14,4.8-8.37,7.5-12.35.93-1.38,2.79-2.13,4.22-3.17.41,1.75,1.65,3.86,1.08,5.17-2.17,5-4.92,9.73-7.63,14.89,4.07,5.1,5.89,5.38,11.89,1.06,2.87-2.07,5.53-4.47,8.58-6.21,1.19-.67,3.17.06,4.79.16-.5,1.51-.55,3.52-1.57,4.44-4.22,3.81-8.72,7.29-13.66,11.33l5.78,6.77,15.1-11.95c2.41,5.54.54,8.31-10.85,17.07,1.52,3.27,3.11,6.7,5.23,11.25,4.75-3.84,8.55-7.13,12.6-10.07,1.34-1,3.33-1,5-1.52-.21,1.76.21,4.11-.76,5.18-3.5,3.82-7.47,7.22-12,11.44l3.05,5.51c4.48-2.74,8.42-5.53,12.72-7.54,1.44-.67,3.81.67,5.75,1.1-1,1.61-1.78,3.61-3.2,4.77-2.84,2.32-6.06,4.17-9.53,6.49l7.84,9.11,18-9.4,1.58,2.34c-3.21,7-11.44,8.4-16.82,13.89l2.07,5.3,17.35-7.16c-.56,7-4.34,10.82-12.3,12.56,5.75,9.89,6.22,10.06,16.32,6a15.11,15.11,0,0,1,4.45-1.43c1.16-.07,2.36.79,3.55,1.24-.54,1.15-.76,2.89-1.65,3.35-4.79,2.47-9.74,4.62-15.12,7.11l2.61,4.8,16.81-2.7.7,1.87c-3.07,4.63-8.76,4.93-13.73,7,.29,2.8.6,5.68,1,9.31l16.84-1.75.6,3.07L484.84,354c.38,2,.86,4.61,1.31,7h15.69c-1,4.82-4.53,5.46-7.87,6.09-9.29,1.76-9.51,2-6.86,10.88l15.5,1.88c-4.76,6.5-10.17,4.33-15.22,4.9V392l12.76,4c-4.08,5.21-8.4,2.9-12.36,2.83-2.74,10.3,1.36,16.38,12.61,17.72-4.12,6.37-8.89,2.29-12.78,2.83-4.61,8.44-4.45,9,3.4,13.07a13,13,0,0,1,3.1,1.67,61.68,61.68,0,0,1,4.13,4.7c-2.19.34-4.43,1.11-6.56.89s-4-1.49-6.24-2.4L478.68,448l8.82,10.35-1.54,2.1-10.19-5.2c-1.89,1.74-4.15,3.81-6,5.57,2,3.43,4.15,6.43,5.57,9.74.7,1.63.08,3.82.06,5.76-1.69-1.06-3.76-1.79-5-3.24-1.85-2.21-3.1-4.91-4.82-7.74a29.76,29.76,0,0,1-2.55,2.32c-4.41,3.2-5.78,6.83-2.39,11.78a11.85,11.85,0,0,1,1.85,6.15c0,1.58-1.23,3.19-1.92,4.79-1.22-1.07-3-1.91-3.53-3.25-1.42-3.39-2.31-7-3.53-10.91l-11.21,4.52c.74,5.15,1.48,10.26,2.22,15.37l-3,.82c-1.92-4.85-3.84-9.71-5.76-14.54-4.21,1.67-8.73,2.91-12.57,5.25-1.79,1.1-2.3,4.34-3.35,6.62s-2,4.6-3.07,6.89l-2.55-.65c.44-4.2.88-8.41,1.36-13l-10.45-3.67c-2.78,3.49-5.14,6.86-8,9.77-.92,1-3.08.7-4.67,1,.13-1.75-.08-3.64.51-5.21.52-1.39,2-2.4,3-3.64,4.63-5.92,4.59-6.17-1.55-11.29-3.23,1.64-6.38,3.7-9.85,4.78-1.57.48-3.75-1-5.65-1.58,1.17-1.51,2.1-3.34,3.58-4.44,1.84-1.36,4.14-2.12,6.87-3.45L383.13,460c-5.65,1.24-10.49,2.58-15.42,3.21-1.29.16-2.86-1.87-4.31-2.9a38.7,38.7,0,0,1,4.05-2.72c.82-.43,1.94-.22,2.89-.48,11-3,12.41-5.43,5.22-14.64-2.32.53-4.84,1.74-7.19,1.47-2.15-.24-4.12-2.08-6.17-3.21,1.77-1.06,3.5-2.18,5.32-3.14a8.37,8.37,0,0,1,2.38-.43c.2-3.22.39-6.29.61-9.81-4.44,1-8.71,2.09-13.06,2.81-1.29.21-2.77-.69-4.16-1.08.72-1.43,1.08-3.54,2.23-4.17,2.37-1.27,5.17-1.72,7.78-2.54s5.38-1.77,9.14-3l-5.83-7.73c-4.12,2.22-7.64,4.34-11.37,6-1.06.46-2.73-.48-4.13-.78.5-1.36.62-3.12,1.56-4a58.59,58.59,0,0,1,6.63-4.65c-2-2.9-3.76-5.53-5.52-8.18-2.31-3.49-5.24-3.42-7.6.24a81.59,81.59,0,0,1-4.44,7c-.95,1.18-2.66,1.75-4,2.6-.17-1.77-.95-3.78-.37-5.25,1.21-3,3.15-5.79,4.85-8.76l-10.62-6.17c-1.8,4.42-3.43,8.82-5.43,13.05-.54,1.12-2.25,1.68-3.42,2.5-.55-1.35-1.82-2.89-1.52-4,1.17-4.51,2.83-8.9,4.65-14.37-3.24-1.41-7.21-3.34-11.34-4.76-.93-.32-2.92.84-3.63,1.87-1.56,2.24-2.42,5-3.95,7.25-1,1.43-2.65,2.38-4,3.55-.35-1.92-1.33-4-.9-5.73.86-3.4,2.5-6.6,3.93-10.17-3.79-3.44-6.81-3.63-9.8,1.6-1.67,2.93-4.63,5.12-7,7.64L287,386.46c2.07-3.87,4.13-7.75,6.25-11.73l-9.44-4.46c-4.59,2.27-9.37,4.93-14.41,7-1.54.62-3.79-.55-5.71-.91,1.21-1.55,2.12-3.58,3.69-4.58,3.57-2.28,7.45-4.06,12.13-6.53-8.47-4.24-15.65-8.12-23.61-1.72a7.16,7.16,0,0,1-3.81,1.39,3.52,3.52,0,0,1-2.89-1.24,3.2,3.2,0,0,1,.81-3c2.69-2.25,5.62-4.24,8.77-6.56L254.41,347c-5.14.75-9.91,1.62-14.72,2-1.2.11-2.52-1.17-3.79-1.81,1-1,1.79-2.64,3-3a86.36,86.36,0,0,1,9.12-2.14c-.78-6.74-4.52-9.56-10.75-8.29A48,48,0,0,1,228,335c-1.23,0-2.46-1.5-3.69-2.31a16.94,16.94,0,0,1,3-2.9,17.86,17.86,0,0,1,3.95-1.13c6.39-1.83,6.51-2.08,4.85-8.31-5.47-.64-10.7-1-15.78-2-1.47-.31-2.49-2.8-3.72-4.29,1.77-.44,3.54-1.27,5.29-1.24,3.81.06,7.61.56,11.92.93-1.26-5.91-1.88-10.46-8.68-10.87-2.56-.15-4.94-3.25-7.41-5,2.86-.18,5.93-1.13,8.54-.4,8.29,2.31,6.92-6.18,11.57-8.49-6.5-3.43-12.18-6.1-17.47-9.4-1.7-1.07-2.36-3.79-3.5-5.76,2.14,0,4.62-.76,6.35.08,5.44,2.63,10.59,5.86,16.2,9.05,1.65-3.31,3.52-7.08,5.69-11.45-3.28-2.94-6.78-5.77-9.85-9-1.09-1.15-1.13-3.31-1.64-5,1.8,0,4-.62,5.32.21,3.94,2.52,7.53,5.62,11.8,8.92l9.86-9.24c-2.51-3.91-4.85-7.28-6.85-10.86-.54-1,0-2.51,0-3.79,1.4.12,3.28-.31,4.13.44,2.91,2.58,5.46,5.57,8.58,8.85l11.41-9.38c-1.63-5.12-3.4-10.11-4.73-15.2-.41-1.58.36-3.47.59-5.21,1.49,1.19,3.66,2.07,4.36,3.62C280.2,230.4,281.72,235.29,283.86,241.19Zm193,106.09.53-.3c-1.28-3.82-2.37-7.72-3.87-11.45-1.76-4.35-3.76-8.61-5.88-12.8-1.59-3.13-3.48-6.1-5.34-9.08-7.34-11.72-13.35-24.39-23.84-33.88-.28-.25-.36-.69-.59-1-6.28-9-12.49-18-18.89-26.85-10.15-14.07-23.49-23.79-40.38-27.81-18.05-4.29-36.44-10.19-53.23,4.06-1.29,1.1-3.31,1.3-4.79,2.23-4,2.51-8.41,4.63-11.58,8-4.12,4.31-8.9,6-14.4,7.21-5.84,1.31-12.46,2.22-17,5.65-9.69,7.32-18.36,16-27.18,24.46-2,1.93-3,5-4.4,7.54-2,3.74-3.44,8-6.13,11.17-4.21,5-5.19,10.83-1.71,15.24,6,7.61,5.54,18.55,14,24.8,3.64,2.69,5.87,7.26,8.94,10.81,2.38,2.76,4.67,5.93,7.71,7.7,4.53,2.65,9.72,4.17,14.57,6.3,1.94.85,4.87,1.66,5.37,3.15,1.38,4.14,4.71,4.15,7.79,5.05a80.26,80.26,0,0,1,9,2.8c16,6.79,32,13.64,47.92,20.68,2.38,1.05,4.41,3.06,6.37,4.87,2.33,2.16,4.06,5.12,6.64,6.81,10.06,6.54,13.47,14.45,11.37,26.17-.4,2.26.79,5,1.82,7.27,2.57,5.66,6,11,8.12,16.8,4.07,11.16,13.14,17.81,21.34,25.3.65.6,1.84.59,2.76.9,14.32,4.94,25.05-5.6,37.49-8.76.35-.09.64-.46.93-.73,5.4-5.08,11.45-9.65,16-15.4,4.88-6.16,9.67-13,12.05-20.34,2.47-7.59,2.71-16.14,2.67-24.27-.06-12-1.14-23.94-2-35.9C478.47,364.82,477.59,356.06,476.84,347.28Z" transform="translate(-8.33 -8.46)"/><path class="cls-4" d="M476.84,347.28c.75,8.78,1.63,17.54,2.23,26.33.82,12,1.9,23.93,2,35.9,0,8.13-.2,16.68-2.67,24.27-2.38,7.34-7.17,14.18-12.05,20.34-4.56,5.75-10.61,10.32-16,15.4-.29.27-.58.64-.93.73-12.44,3.16-23.17,13.7-37.49,8.76-.92-.31-2.11-.3-2.76-.9-8.2-7.49-17.27-14.14-21.34-25.3-2.12-5.81-5.55-11.14-8.12-16.8-1-2.26-2.22-5-1.82-7.27,2.1-11.72-1.31-19.63-11.37-26.17-2.58-1.69-4.31-4.65-6.64-6.81-2-1.81-4-3.82-6.37-4.87-15.91-7-31.91-13.89-47.92-20.68a80.26,80.26,0,0,0-9-2.8c-3.08-.9-6.41-.91-7.79-5.05-.5-1.49-3.43-2.3-5.37-3.15-4.85-2.13-10-3.65-14.57-6.3-3-1.77-5.33-4.94-7.71-7.7-3.07-3.55-5.3-8.12-8.94-10.81-8.49-6.25-8-17.19-14-24.8-3.48-4.41-2.5-10.27,1.71-15.24,2.69-3.17,4.1-7.43,6.13-11.17,1.39-2.57,2.38-5.61,4.4-7.54,8.82-8.43,17.49-17.14,27.18-24.46,4.53-3.43,11.15-4.34,17-5.65,5.5-1.23,10.28-2.9,14.4-7.21,3.17-3.32,7.61-5.44,11.58-8,1.48-.93,3.5-1.13,4.79-2.23,16.79-14.25,35.18-8.35,53.23-4.06,16.89,4,30.23,13.74,40.38,27.81,6.4,8.88,12.61,17.89,18.89,26.85.23.33.31.77.59,1,10.49,9.49,16.5,22.16,23.84,33.88,1.86,3,3.75,6,5.34,9.08,2.12,4.19,4.12,8.45,5.88,12.8,1.5,3.73,2.59,7.63,3.87,11.45Z" transform="translate(-8.33 -8.46)"/><path class="cls-3" d="M274.93,171.29c-3.55,3.26-6.61,5.91-2.19,10.76a87.27,87.27,0,0,1,9,12.39c1,1.57.88,3.82,1.28,5.75-2-.5-4.71-.35-5.9-1.62-4.13-4.4-7.73-9.29-11.46-13.9l-13,9.21c2.68,3.1,5.54,6,7.88,9.33.93,1.32.7,3.47,1,5.24-1.74-.25-3.77,0-5.19-.86-3.58-2.1-6.88-4.67-10.29-7.06l1.67-2.39-8.38,5.57c1.76,4.13,3.65,8,5,12,.6,1.79.14,3.94.15,5.93-1.81-1.12-4.25-1.82-5.3-3.44-2.32-3.57-3.94-7.61-6-11.76l-11.54,3.11c2.62,4.33,5.14,8,7.13,12,.6,1.2-.29,3.15-.49,4.76-1.54-.55-3.61-.65-4.53-1.73-2.92-3.4-5.41-7.18-8.21-11l-9,3.45c1.06,6.62,2.08,13,3.1,19.4l-2,.54c-5.8-4.6-5.71-11.89-7.48-19.47-3.39,1.79-6.41,3.95-9.78,5-5.28,1.68-3.4,5.84-3.88,9.23-.25,1.76-.12,3.62-.66,5.27a24.64,24.64,0,0,1-2.58,4.56c-1-1.55-2.5-3-2.82-4.69a108.41,108.41,0,0,1-1-10.93c-6.63-2.64-11.85.82-16.88,3.5-1.61.86-1.8,4.45-2.6,6.8-1,3-2,6.09-3,9.13L154.3,245c-.19-4.3-.38-8.61-.58-13.16a3.29,3.29,0,0,0-1.21-.67c-10.51-1.58-10.33-4.56-12.77,8.42-.66,3.48-2,6.83-3.2,11-4.14-4.85-4.14-4.85.31-22.05-.14-.13-.26-.33-.43-.38-11.11-3.45-11.07-3.43-16.21,6.93a65.74,65.74,0,0,1-3.83,5.89c-2.24-4.11-2.24-4.11,1.78-18l-10.71-1.54L97.22,243.27l-2.29-.92c-2.39-8.15,3.21-14.22,6.64-21.59-2.29-.76-4.59-1.58-6.92-2.27-3.22-1-5.43-.4-6.94,3.22a44.28,44.28,0,0,1-7.82,12.14c-2.62-7,3-11.87,4.38-17.91l-10.42-6.35c-2.61,4.41-5,8.78-7.76,13-.73,1.14-2.26,1.75-3.42,2.61-.35-1.54-1.42-3.38-.92-4.57,1.89-4.51,4.28-8.81,6.48-13.19-6-5.44-7-5.37-12,.62-2.12,2.55-4.29,5-6.45,7.55L47.38,214,55,200.44,44.42,190.37,31.94,207.61c-2.27-4.67-2.27-4.67,9.17-20.89a40.44,40.44,0,0,1-5.45-3.95c-1.51-1.48-2.51-3.49-5.13-7.29-2.34,3.24-4.17,6.36-6.6,8.88-1.2,1.25-3.52,1.4-5.33,2,.41-1.94.39-4.12,1.32-5.77a36.85,36.85,0,0,1,8.35-10.52c.65-5.25-.59-6.28-6.8-5.16-4.29.78-8.55,1.71-13.14,1.61,3.53-7.7,11.44-6.58,17.51-9-.18-3.74-.35-7.24-.56-11.66-3.53.52-6.88,1.23-10.25,1.42-1.29.07-2.64-1.07-4-1.66.84-1.17,1.46-3,2.57-3.39,3.84-1.36,7.86-2.21,12.48-3.43V126.16c-4.65,0-8.94.18-13.2-.12-1.23-.09-2.36-1.58-3.54-2.42,1.12-.86,2.12-2.13,3.38-2.47a53,53,0,0,1,7.58-1.1c7-.79,8.12-2.24,7.71-9.84l-16.7-1.13-.2-2.31c1-.64,1.95-1.63,3-1.86,2.1-.44,4.31-.34,6.44-.68C31.32,102.54,31.31,102.51,36,92.9c-4.68-.88-9.64-1.58-14.45-2.85-1.25-.33-2-2.45-3-3.75,1.48-.56,3-1.6,4.45-1.58,3.12,0,6.23.66,9.35,1,5.77.61,9.82-1.65,11.87-7.22l-7.89-7.27L37,69.47c1.48.09,3.1-.19,4.4.34C52.87,74.48,55.2,73.58,60.1,62.2c-3.14-1.83-6.46-3.43-9.3-5.63-1-.77-.79-3.06-1.13-4.66,1.46,0,2.92,0,4.37,0,.18,0,.35.18.53.25C66.36,56.87,67,56.72,76.79,46.25c-2.7-2.44-5.72-4.66-8-7.48-1.12-1.38-.86-3.88-1.23-5.88,1.79.61,3.9.8,5.32,1.9,2.94,2.26,5.44,5.08,8.27,7.48a4.75,4.75,0,0,0,3.41,1.2c3.79-.8,7.49-2,11.38-3.08-2.1-3.88-4.15-7.25-5.74-10.83-.51-1.12.18-2.79.33-4.21,1.4.38,3,.43,4.13,1.23a11.56,11.56,0,0,1,3.44,4c3,6,7,5.91,11.9,2.17-1.89-3.95-4-7.92-5.66-12.07-.47-1.17.24-2.83.41-4.27a19.6,19.6,0,0,1,4.39,1.78c1.06.76,1.67,2.16,2.43,3.31,6,9.14,6,9.14,16.83,5.54-1.2-5.9-4.83-11.67-3-17.92l1.88-.53a51.93,51.93,0,0,1,3,5.81c5.33,14,3.21,12.86,19.28,11.08-.46-3.64-1.14-7.26-1.26-10.91-.05-1.21,1.32-2.48,2-3.72,1.12.9,2.62,1.58,3.28,2.74.85,1.49,1.05,3.36,1.49,5.07,2.18,8.39,2.55,8.63,12.49,7.59a86.75,86.75,0,0,1-1.26-10.32c0-1.88,1.16-3.78,1.8-5.66,1.35,1.63,3.06,3.09,3.94,5a15.67,15.67,0,0,1,1.37,6.32c.05,4.76,2.45,6.07,6.75,5.62a74.94,74.94,0,0,1,7.81-.05c.41-6.12.82-12.29,1.23-18.45L192,8.46c.71,2.19,1.48,4.36,2.1,6.58a15.84,15.84,0,0,1,.25,2.94c1,11.54,1.24,11.74,13.79,9.89,1.22-6.12-.75-13.37,3.81-18.69l2.17.25c.16,2.58.52,5.16.44,7.73-.35,11.59-.4,11.58,11.06,15.1l6.27-10.32,1.17.69c.46,4.75-.64,10.7,1.82,13.91,2.59,3.37,8.58,4.11,13.93,6.36a94.72,94.72,0,0,1,5.46-9c1.22-1.61,3.35-2.53,5.07-3.77-.08,2.13-.06,4.27-.29,6.39a10,10,0,0,1-1.12,2.72c-3.92,8.88-2.3,13.62,6.4,18.87,2.23-3.39,4.19-7,6.8-10,1.11-1.29,3.59-1.39,5.44-2-.19,1.79.15,3.92-.7,5.32C273.67,55,271,58.3,268.37,61.86c7.77,10.26,7.76,10.25,20.15,5a35.85,35.85,0,0,1,4.08-1.12c-.27,5.9-4.35,7.91-8,9.29-5.32,2-6.52,5-4,10.29,2.65-.33,5.48-.81,8.34-1,2.49-.17,5,0,7.52,0,.18,1,.37,2,.56,3L280.83,93c.3,3.33.61,7,1,11,6.36,1.55,12.7-4.84,20.18.21-6.65,4.9-13.54,6.28-21.06,7v7.38l21.39,1,.18,2.23c-5.38,4.59-12.27,3.33-19.23,3.84.19,3.18.4,6.39.59,9.42,5.33.49,10.37.79,15.35,1.52,1.22.18,2.24,1.76,3.35,2.69-1.3.92-2.55,2.53-3.92,2.63-4.63.33-9.31.12-14.17.12l-1.64,10.47c5.48,3,13.09,1.9,17.26,7.6l-.51,2c-3.42-.59-6.86-1.07-10.24-1.79-8.63-1.83-7.41-3.86-10.89,6,4.8,3.87,9.84,7.85,14.75,12a17.12,17.12,0,0,1,2.53,3.5c-1.56.4-3.54,1.6-4.61,1.05a103.75,103.75,0,0,1-11.26-7.15A51.89,51.89,0,0,1,274.93,171.29ZM152.81,224.71c1.84-.27,3.54-.15,4.92-.77,8.17-3.64,16.87-4.35,25.55-5.85,9.82-1.71,19.18-6.28,28.65-9.85,4.7-1.78,9.19-4.13,13.77-6.21,5.33-2.4,11.65-3.69,15.78-7.42,9.3-8.42,21.14-13.68,27.67-25.84,4.83-9,8.51-17.71,8.19-27.69-.34-10.57-1.86-21.08-2.58-31.64-.62-9.17-.67-18.39-1.35-27.55A12.59,12.59,0,0,0,270.68,75c-6.75-7.88-13.8-15.49-20.81-23.13a9.24,9.24,0,0,0-2.94-1.94c-6.73-3.13-13.34-6.61-20.28-9.16s-14.19-5.31-21.47-6c-16.81-1.5-33.72-2-50.6-2.51-12.61-.4-25.19.28-37.09,5.09-7.8,3.15-15.17,7.66-23.21,9.81-14.83,4-25.34,12.69-32.92,25.64-.88,1.51-1.69,3.56-3.07,4.22-8.59,4.07-12.36,11.83-17,19.53-6.07,10.13-7.86,20.8-8.32,32.11-.27,6.68-.19,13.41-1.06,20-1.56,11.84,5.17,20.87,9.52,30.74a2.63,2.63,0,0,0,.83.83c10.4,7.88,19.07,18.26,32.17,22.29,2,.61,3.61,2.4,5.58,3.26,5.34,2.33,10.62,5,16.2,6.52,10.39,2.78,21,4.84,31.5,7.12C136.16,221.28,144.61,223,152.81,224.71Z" transform="translate(-8.33 -8.46)"/><path class="cls-4" d="M152.81,224.71c-8.2-1.71-16.65-3.43-25.07-5.25-10.52-2.28-21.11-4.34-31.5-7.12-5.58-1.49-10.86-4.19-16.2-6.52-2-.86-3.58-2.65-5.58-3.26-13.1-4-21.77-14.41-32.17-22.29a2.63,2.63,0,0,1-.83-.83c-4.35-9.87-11.08-18.9-9.52-30.74.87-6.61.79-13.34,1.06-20,.46-11.31,2.25-22,8.32-32.11,4.61-7.7,8.38-15.46,17-19.53,1.38-.66,2.19-2.71,3.07-4.22,7.58-12.95,18.09-21.69,32.92-25.64,8-2.15,15.41-6.66,23.21-9.81,11.9-4.81,24.48-5.49,37.09-5.09,16.88.54,33.79,1,50.6,2.51,7.28.65,14.5,3.4,21.47,6s13.55,6,20.28,9.16a9.24,9.24,0,0,1,2.94,1.94c7,7.64,14.06,15.25,20.81,23.13a12.59,12.59,0,0,1,2.73,6.91c.68,9.16.73,18.38,1.35,27.55.72,10.56,2.24,21.07,2.58,31.64.32,10-3.36,18.69-8.19,27.69-6.53,12.16-18.37,17.42-27.67,25.84-4.13,3.73-10.45,5-15.78,7.42-4.58,2.08-9.07,4.43-13.77,6.21-9.47,3.57-18.83,8.14-28.65,9.85-8.68,1.5-17.38,2.21-25.55,5.85C156.35,224.56,154.65,224.44,152.81,224.71Z" transform="translate(-8.33 -8.46)"/><path d="M423,251a9.06,9.06,0,0,1,3.5.08c2.37.65,6.33,1.57,6.57,2.91,1.85,10.5,13.62,16.37,12.78,28.07-.11,1.4,1.69,3.07,2.86,4.4,2.53,2.85,5.87,5.18,7.73,8.4,8.16,14.09,14.69,29.33,24.2,42.4,8.42,11.58,11.26,21.92,5.77,35.41-2,4.95-.75,11.72.39,17.38,2.4,11.82,1.89,23-3.24,34.07-1.69,3.67-1.46,8.22-2.25,12.34-.73,3.84-1,8-2.6,11.41-7.51,16-20,26-37,31.39-9.18,2.92-18,5.88-27.81,6.44s-17.47-3.31-23.49-10c-2.45-2.73-3.06-8-2.85-12,.32-6.44-.53-10.93-7.68-12.9-5.59-1.55-7.36-6.3-7.78-12-.24-3.22-2.27-6.27-3.27-9.47-.84-2.72-2.52-5.87-1.82-8.23,1.91-6.54-1.83-9.1-6.27-12.18-8.78-6.09-17-12.94-25.88-18.93-9.47-6.42-18.56-12.57-31.11-13.83-12.35-1.23-25.47-3.78-34.55-15.12-5.3-6.61-13.19-11.11-18.6-17.66-6.9-8.34-12.28-17.73-14.06-29-.8-5.05-4.17-9.64-5.93-14.6-.9-2.51-2-5.9-1-8,3.82-8.12,6.92-17.42,13.07-23.41,11.13-10.85,24.16-19.75,36.61-29.2,2.38-1.8,5.75-3.4,8.6-3.29,10.9.43,19.12-4.23,26.46-11.77a42.59,42.59,0,0,1,38.33-12.64c11.07,1.86,23.86,1.95,32.55,11.73a2.18,2.18,0,0,0,1.56.69c13-1.46,20.76,8.73,30.38,14.42C420.14,240,420.74,245.74,423,251Zm-2.82,12.39c-5.69.83-11.2-2.19-15.67-7.45-3.18-3.74-5.61-8.46-9.45-11.24-8.4-6.09-17.09-12-26.41-16.48-6.93-3.3-15-4.32-22.63-6-2.39-.52-5.49-.59-7.51.51-5.95,3.25-12,6.63-17.14,11-8.53,7.25-17.08,13.69-28.94,13.87a14.79,14.79,0,0,0-8.24,2.47c-10,7.54-19.36,15.85-29.47,23.17-7.17,5.2-7.87,13.85-12.47,20.34-.44.61-.11,1.94.16,2.85,2.08,7.23,5.2,14.36,8,21S255,333.17,262.83,338a65.13,65.13,0,0,1,15.44,13.12c7.46,8.73,17.78,11,27.79,12.32,9.55,1.27,18,4.05,25.64,9.41,13.59,9.52,27,19.31,40.46,29,5.8,4.17,9.79,9.14,7.77,17-.29,1.11.6,2.53.92,3.81,1,4.06,1.78,8.2,3.13,12.13.76,2.25,2,5.21,3.85,6.06,10.17,4.65,13.29,9.6,12.12,20.83-.76,7.27,3.89,11.75,11.33,11.34a114.81,114.81,0,0,0,26.32-4.87c14.67-4.31,22.8-14.49,29.9-26.53.83-1.41.77-3.36,1.08-5.08,1.12-6.3,1-13.2,3.61-18.77,4.3-9,4.39-17.94,2-27-2.64-10-2.51-19.52,2.29-28.74,1.79-3.44,1.23-6.16-1-9.22-4.22-5.88-8.4-11.83-12-18.09-6.57-11.37-12.7-23-19.1-34.48a5.43,5.43,0,0,0-2.56-2.32c-7.09-2.72-8.74-8.26-8.64-15.2a12.31,12.31,0,0,0-2.56-6.77C427.75,272,424.35,268.33,420.16,263.35Z" transform="translate(-8.33 -8.46)"/><path d="M179.45,20c5.67.69,13.22.92,20.4,2.65,18,4.33,35.67,9.73,51.6,19.46,21.28,13,33.6,31.37,33.89,57.18.1,9.21,1.66,18.43,3,27.58,4.85,33.07-8.45,59.68-38.52,73.74-19.39,9.07-39.15,17.68-59.43,24.4-29.77,9.85-60.22,12.21-90-.62-8.76-3.77-16.55-9.75-25-14.32-7.41-4-15.24-7.25-22.64-11.27-3.15-1.71-6.67-4-8.34-6.93-5.69-10.11-11-20.48-15.78-31.05-7.83-17.36-8-34.88-.76-52.74C41,75.75,62.38,50.67,93.22,34.74c9.87-5.1,21.64-7.17,32.8-8.91C143.09,23.17,160.39,22,179.45,20ZM144.83,218.11l.32,1.43c13.24-2.57,27-3.72,39.61-8,20.43-7,40.43-15.4,60.11-24.32,23-10.44,31.87-26.21,30.24-51.6-.93-14.53-2.24-29.06-4-43.51-1.57-12.79-7.43-23.23-17.68-31.64-15.72-12.91-34.54-18.29-53.34-23.87-5-1.49-10.45-2.79-15.6-2.5-19.62,1.12-39.28,2.32-58.76,4.75C115.93,40,105.73,42.48,97,47,74.16,58.79,57.89,77.82,45.9,100.33c-10.31,19.34-13.54,39.37-2.34,59.82,3.87,7.08,7.12,14.49,11.1,21.5,1.22,2.15,3.69,3.91,6,5.09,10.47,5.42,21.89,9.4,31.45,16.09C108.21,214.12,125.67,218.54,144.83,218.11Z" transform="translate(-8.33 -8.46)"/><path class="cls-4" d="M420.16,263.35c4.19,5,7.59,8.61,10.49,12.61a12.31,12.31,0,0,1,2.56,6.77c-.1,6.94,1.55,12.48,8.64,15.2a5.43,5.43,0,0,1,2.56,2.32c6.4,11.48,12.53,23.11,19.1,34.48,3.62,6.26,7.8,12.21,12,18.09,2.2,3.06,2.76,5.78,1,9.22-4.8,9.22-4.93,18.72-2.29,28.74,2.37,9,2.28,17.92-2,27-2.65,5.57-2.49,12.47-3.61,18.77-.31,1.72-.25,3.67-1.08,5.08-7.1,12-15.23,22.22-29.9,26.53A114.81,114.81,0,0,1,411.28,473c-7.44.41-12.09-4.07-11.33-11.34,1.17-11.23-1.95-16.18-12.12-20.83C386,440,384.74,437,384,434.76c-1.35-3.93-2.12-8.07-3.13-12.13-.32-1.28-1.21-2.7-.92-3.81,2-7.87-2-12.84-7.77-17-13.47-9.7-26.87-19.49-40.46-29-7.66-5.36-16.09-8.14-25.64-9.41-10-1.32-20.33-3.59-27.79-12.32A65.13,65.13,0,0,0,262.83,338c-7.87-4.78-9.67-13.74-12.47-20.51s-5.89-13.81-8-21c-.27-.91-.6-2.24-.16-2.85,4.6-6.49,5.3-15.14,12.47-20.34,10.11-7.32,19.5-15.63,29.47-23.17a14.79,14.79,0,0,1,8.24-2.47c11.86-.18,20.41-6.62,28.94-13.87,5.14-4.36,11.19-7.74,17.14-11,2-1.1,5.12-1,7.51-.51,7.64,1.66,15.7,2.68,22.63,6,9.32,4.44,18,10.39,26.41,16.48,3.84,2.78,6.27,7.5,9.45,11.24C409,261.16,414.47,264.18,420.16,263.35Z" transform="translate(-8.33 -8.46)"/><path class="cls-4" d="M144.83,218.11c-19.16.43-36.62-4-52.74-15.28-9.56-6.69-21-10.67-31.45-16.09-2.29-1.18-4.76-2.94-6-5.09-4-7-7.23-14.42-11.1-21.5-11.2-20.45-8-40.48,2.34-59.82C57.89,77.82,74.16,58.79,97,47c8.69-4.48,18.89-6.93,28.67-8.14,19.48-2.43,39.14-3.63,58.76-4.75,5.15-.29,10.58,1,15.6,2.5,18.8,5.58,37.62,11,53.34,23.87,10.25,8.41,16.11,18.85,17.68,31.64,1.78,14.45,3.09,29,4,43.51,1.63,25.39-7.24,41.16-30.24,51.6-19.68,8.92-39.68,17.36-60.11,24.32-12.65,4.31-26.37,5.46-39.61,8Z" transform="translate(-8.33 -8.46)"/></svg>